999
DXF conversion of "penguin.lwo" by Sandro Sigala
0
SECTION
2
HEADER
9
$ACADVER
1
AC1006
9
$INSBASE
10
0.0
20
0.0
30
0.0
9
$EXTMIN
10
-2.0
20
-2.0
9
$EXTMAX
10
2.0
20
2.0
0
ENDSEC
0
SECTION
2
TABLES
0
TABLE
2
LTYPE
70
1
0
LTYPE
2
CONTINUOUS
70
64
3
Solid line
72
65
73
0
40
0.000000
0
ENDTAB
0
TABLE
2
LAYER
70
6
0
LAYER
2
1
70
64
62
2
6
CONTINUOUS
0
ENDTAB
0
TABLE
2
STYLE
70
0
0
ENDTAB
0
ENDSEC
0
SECTION
2
BLOCKS
0
ENDSEC
0
SECTION
2
ENTITIES
0
3DFACE
8
1
62
168
10
-2.157768
20
0.574020
30
1.950361
11
-3.663012
21
0.187600
31
1.756313
12
-2.784193
22
0.434225
32
1.166800
13
-2.784193
23
0.434225
33
1.166800
0
3DFACE
8
1
62
168
10
-4.977139
20
0.313348
30
1.649152
11
-3.840652
21
0.421998
31
0.948927
12
-3.663012
22
0.187600
32
1.756313
13
-3.663012
23
0.187600
33
1.756313
0
3DFACE
8
1
62
168
10
-3.002240
20
0.581744
30
0.340102
11
-2.784193
21
0.434225
31
1.166800
12
-3.840652
22
0.421998
32
0.948927
13
-3.840652
23
0.421998
33
0.948927
0
3DFACE
8
1
62
168
10
-3.663012
20
0.187600
30
1.756313
11
-3.840652
21
0.421998
31
0.948927
12
-2.784193
22
0.434225
32
1.166800
13
-2.784193
23
0.434225
33
1.166800
0
3DFACE
8
1
62
168
10
-2.742414
20
-1.833333
30
0.666667
11
-2.501598
21
-0.635908
31
1.351599
12
-2.896571
22
-0.628203
32
0.496002
13
-2.896571
23
-0.628203
33
0.496002
0
3DFACE
8
1
62
168
10
-2.157768
20
0.574020
30
1.950361
11
-2.784193
21
0.434225
31
1.166800
12
-2.501598
22
-0.635908
32
1.351599
13
-2.501598
23
-0.635908
33
1.351599
0
3DFACE
8
1
62
168
10
-3.002240
20
0.581744
30
0.340102
11
-2.896571
21
-0.628203
31
0.496002
12
-2.784193
22
0.434225
32
1.166800
13
-2.784193
23
0.434225
33
1.166800
0
3DFACE
8
1
62
168
10
-2.501598
20
-0.635908
30
1.351599
11
-2.784193
21
0.434225
31
1.166800
12
-2.896571
22
-0.628203
32
0.496002
13
-2.896571
23
-0.628203
33
0.496002
0
3DFACE
8
1
62
168
10
-3.166667
20
3.000000
30
0.333333
11
-3.328749
21
1.736732
31
0.287443
12
-4.141350
22
1.590813
32
0.874045
13
-4.141350
23
1.590813
33
0.874045
0
3DFACE
8
1
62
168
10
-3.002240
20
0.581744
30
0.340102
11
-3.840652
21
0.421998
31
0.948927
12
-3.328749
22
1.736732
32
0.287443
13
-3.328749
23
1.736732
33
0.287443
0
3DFACE
8
1
62
168
10
-4.977139
20
0.313348
30
1.649152
11
-4.141350
21
1.590813
31
0.874045
12
-3.840652
22
0.421998
32
0.948927
13
-3.840652
23
0.421998
33
0.948927
0
3DFACE
8
1
62
168
10
-3.328749
20
1.736732
30
0.287443
11
-3.840652
21
0.421998
31
0.948927
12
-4.141350
22
1.590813
32
0.874045
13
-4.141350
23
1.590813
33
0.874045
0
3DFACE
8
1
62
168
10
-4.977139
20
0.313348
30
1.649152
11
-3.744084
21
1.732479
31
1.588561
12
-4.141350
22
1.590813
32
0.874045
13
-4.141350
23
1.590813
33
0.874045
0
3DFACE
8
1
62
168
10
-2.239172
20
3.000000
30
2.023689
11
-2.702919
21
3.000000
31
1.178511
12
-3.744084
22
1.732479
32
1.588561
13
-3.744084
23
1.732479
33
1.588561
0
3DFACE
8
1
62
168
10
-3.166667
20
3.000000
30
0.333333
11
-4.141350
21
1.590813
31
0.874045
12
-2.702919
22
3.000000
32
1.178511
13
-2.702919
23
3.000000
33
1.178511
0
3DFACE
8
1
62
168
10
-3.744084
20
1.732479
30
1.588561
11
-2.702919
21
3.000000
31
1.178511
12
-4.141350
22
1.590813
32
0.874045
13
-4.141350
23
1.590813
33
0.874045
0
3DFACE
8
1
62
168
10
-4.977139
20
0.313348
30
1.649152
11
-3.663012
21
0.187600
31
1.756313
12
-3.744084
22
1.732479
32
1.588561
13
-3.744084
23
1.732479
33
1.588561
0
3DFACE
8
1
62
168
10
-2.157768
20
0.574020
30
1.950361
11
-2.249846
21
1.793720
31
2.047014
12
-3.663012
22
0.187600
32
1.756313
13
-3.663012
23
0.187600
33
1.756313
0
3DFACE
8
1
62
168
10
-2.239172
20
3.000000
30
2.023689
11
-3.744084
21
1.732479
31
1.588561
12
-2.249846
22
1.793720
32
2.047014
13
-2.249846
23
1.793720
33
2.047014
0
3DFACE
8
1
62
168
10
-3.663012
20
0.187600
30
1.756313
11
-2.249846
21
1.793720
31
2.047014
12
-3.744084
22
1.732479
32
1.588561
13
-3.744084
23
1.732479
33
1.588561
0
3DFACE
8
1
62
168
10
-2.742414
20
-1.833333
30
0.666667
11
-2.340796
21
-1.833333
31
1.353954
12
-2.501598
22
-0.635908
32
1.351599
13
-2.501598
23
-0.635908
33
1.351599
0
3DFACE
8
1
62
168
10
-1.939179
20
-1.833333
30
2.041241
11
-2.062014
21
-0.631258
31
2.011742
12
-2.340796
22
-1.833333
32
1.353954
13
-2.340796
23
-1.833333
33
1.353954
0
3DFACE
8
1
62
168
10
-2.157768
20
0.574020
30
1.950361
11
-2.501598
21
-0.635908
31
1.351599
12
-2.062014
22
-0.631258
32
2.011742
13
-2.062014
23
-0.631258
33
2.011742
0
3DFACE
8
1
62
168
10
-2.340796
20
-1.833333
30
1.353954
11
-2.062014
21
-0.631258
31
2.011742
12
-2.501598
22
-0.635908
32
1.351599
13
-2.501598
23
-0.635908
33
1.351599
0
3DFACE
8
1
62
168
10
-2.742414
20
-1.833333
30
0.666667
11
-2.819129
21
-3.831985
31
0.808624
12
-2.482739
22
-3.763224
32
0.962285
13
-2.482739
23
-3.763224
33
0.962285
0
3DFACE
8
1
62
168
10
-2.895845
20
-5.830637
30
0.950582
11
-2.559455
21
-5.761876
31
1.104242
12
-2.819129
22
-3.831985
32
0.808624
13
-2.819129
23
-3.831985
33
0.808624
0
3DFACE
8
1
62
168
10
-2.223065
20
-5.693115
30
1.257903
11
-2.482739
21
-3.763224
31
0.962285
12
-2.559455
22
-5.761876
32
1.104242
13
-2.559455
23
-5.761876
33
1.104242
0
3DFACE
8
1
62
168
10
-2.819129
20
-3.831985
30
0.808624
11
-2.559455
21
-5.761876
31
1.104242
12
-2.482739
22
-3.763224
32
0.962285
13
-2.482739
23
-3.763224
33
0.962285
0
3DFACE
8
1
62
168
10
-2.742414
20
-1.833333
30
0.666667
11
-2.482739
21
-3.763224
31
0.962285
12
-2.340796
22
-1.833333
32
1.353954
13
-2.340796
23
-1.833333
33
1.353954
0
3DFACE
8
1
62
168
10
-2.223065
20
-5.693115
30
1.257903
11
-2.081122
21
-3.763224
31
1.649572
12
-2.482739
22
-3.763224
32
0.962285
13
-2.482739
23
-3.763224
33
0.962285
0
3DFACE
8
1
62
168
10
-1.939179
20
-1.833333
30
2.041241
11
-2.340796
21
-1.833333
31
1.353954
12
-2.081122
22
-3.763224
32
1.649572
13
-2.081122
23
-3.763224
33
1.649572
0
3DFACE
8
1
62
168
10
-2.482739
20
-3.763224
30
0.962285
11
-2.081122
21
-3.763224
31
1.649572
12
-2.340796
22
-1.833333
32
1.353954
13
-2.340796
23
-1.833333
33
1.353954
0
3DFACE
8
1
62
168
10
2.157768
20
0.574020
30
1.950361
11
2.580004
21
0.577882
31
1.145231
12
3.637636
22
0.191479
32
1.731872
13
3.637636
23
0.191479
33
1.731872
0
3DFACE
8
1
62
168
10
3.002240
20
0.581744
30
0.340102
11
3.891087
21
0.369795
31
0.898640
12
2.580004
22
0.577882
32
1.145231
13
2.580004
23
0.577882
33
1.145231
0
3DFACE
8
1
62
168
10
4.977139
20
0.313348
30
1.649152
11
3.637636
21
0.191479
31
1.731872
12
3.891087
22
0.369795
32
0.898640
13
3.891087
23
0.369795
33
0.898640
0
3DFACE
8
1
62
168
10
2.580004
20
0.577882
30
1.145231
11
3.891087
21
0.369795
31
0.898640
12
3.637636
22
0.191479
32
1.731872
13
3.637636
23
0.191479
33
1.731872
0
3DFACE
8
1
62
168
10
2.742414
20
-1.833333
30
0.666667
11
2.872327
21
-0.625795
31
0.503384
12
2.450091
22
-0.629657
32
1.308514
13
2.450091
23
-0.629657
33
1.308514
0
3DFACE
8
1
62
168
10
3.002240
20
0.581744
30
0.340102
11
2.580004
21
0.577882
31
1.145231
12
2.872327
22
-0.625795
32
0.503384
13
2.872327
23
-0.625795
33
0.503384
0
3DFACE
8
1
62
168
10
2.157768
20
0.574020
30
1.950361
11
2.450091
21
-0.629657
31
1.308514
12
2.580004
22
0.577882
32
1.145231
13
2.580004
23
0.577882
33
1.145231
0
3DFACE
8
1
62
168
10
2.872327
20
-0.625795
30
0.503384
11
2.580004
21
0.577882
31
1.145231
12
2.450091
22
-0.629657
32
1.308514
13
2.450091
23
-0.629657
33
1.308514
0
3DFACE
8
1
62
168
10
3.166667
20
3.000000
30
0.333333
11
4.141351
21
1.590712
31
0.873818
12
3.084453
22
1.790872
32
0.336718
13
3.084453
23
1.790872
33
0.336718
0
3DFACE
8
1
62
168
10
4.977139
20
0.313348
30
1.649152
11
3.891087
21
0.369795
31
0.898640
12
4.141351
22
1.590712
32
0.873818
13
4.141351
23
1.590712
33
0.873818
0
3DFACE
8
1
62
168
10
3.002240
20
0.581744
30
0.340102
11
3.084453
21
1.790872
31
0.336718
12
3.891087
22
0.369795
32
0.898640
13
3.891087
23
0.369795
33
0.898640
0
3DFACE
8
1
62
168
10
4.141351
20
1.590712
30
0.873818
11
3.891087
21
0.369795
31
0.898640
12
3.084453
22
1.790872
32
0.336718
13
3.084453
23
1.790872
33
0.336718
0
3DFACE
8
1
62
168
10
4.977139
20
0.313348
30
1.649152
11
4.141351
21
1.590712
31
0.873818
12
3.743687
22
1.732378
32
1.588012
13
3.743687
23
1.732378
33
1.588012
0
3DFACE
8
1
62
168
10
3.166667
20
3.000000
30
0.333333
11
2.702919
21
3.000000
31
1.178511
12
4.141351
22
1.590712
32
0.873818
13
4.141351
23
1.590712
33
0.873818
0
3DFACE
8
1
62
168
10
2.239172
20
3.000000
30
2.023689
11
3.743687
21
1.732378
31
1.588012
12
2.702919
22
3.000000
32
1.178511
13
2.702919
23
3.000000
33
1.178511
0
3DFACE
8
1
62
168
10
4.141351
20
1.590712
30
0.873818
11
2.702919
21
3.000000
31
1.178511
12
3.743687
22
1.732378
32
1.588012
13
3.743687
23
1.732378
33
1.588012
0
3DFACE
8
1
62
168
10
4.977139
20
0.313348
30
1.649152
11
3.743687
21
1.732378
31
1.588012
12
3.637636
22
0.191479
32
1.731872
13
3.637636
23
0.191479
33
1.731872
0
3DFACE
8
1
62
168
10
2.239172
20
3.000000
30
2.023689
11
2.198470
21
1.787010
31
1.987025
12
3.743687
22
1.732378
32
1.588012
13
3.743687
23
1.732378
33
1.588012
0
3DFACE
8
1
62
168
10
2.157768
20
0.574020
30
1.950361
11
3.637636
21
0.191479
31
1.731872
12
2.198470
22
1.787010
32
1.987025
13
2.198470
23
1.787010
33
1.987025
0
3DFACE
8
1
62
168
10
3.743687
20
1.732378
30
1.588012
11
2.198470
21
1.787010
31
1.987025
12
3.637636
22
0.191479
32
1.731872
13
3.637636
23
0.191479
33
1.731872
0
3DFACE
8
1
62
168
10
2.742414
20
-1.833333
30
0.666667
11
2.450091
21
-0.629657
31
1.308514
12
2.340796
22
-1.833333
32
1.353954
13
2.340796
23
-1.833333
33
1.353954
0
3DFACE
8
1
62
168
10
2.157768
20
0.574020
30
1.950361
11
2.048474
21
-0.629657
31
1.995801
12
2.450091
22
-0.629657
32
1.308514
13
2.450091
23
-0.629657
33
1.308514
0
3DFACE
8
1
62
168
10
1.939179
20
-1.833333
30
2.041241
11
2.340796
21
-1.833333
31
1.353954
12
2.048474
22
-0.629657
32
1.995801
13
2.048474
23
-0.629657
33
1.995801
0
3DFACE
8
1
62
168
10
2.450091
20
-0.629657
30
1.308514
11
2.048474
21
-0.629657
31
1.995801
12
2.340796
22
-1.833333
32
1.353954
13
2.340796
23
-1.833333
33
1.353954
0
3DFACE
8
1
62
168
10
2.742414
20
-1.833333
30
0.666667
11
2.340796
21
-1.833333
31
1.353954
12
2.482739
22
-3.763224
32
0.962285
13
2.482739
23
-3.763224
33
0.962285
0
3DFACE
8
1
62
168
10
1.939179
20
-1.833333
30
2.041241
11
2.081122
21
-3.763224
31
1.649572
12
2.340796
22
-1.833333
32
1.353954
13
2.340796
23
-1.833333
33
1.353954
0
3DFACE
8
1
62
168
10
2.223065
20
-5.693115
30
1.257903
11
2.482739
21
-3.763224
31
0.962285
12
2.081122
22
-3.763224
32
1.649572
13
2.081122
23
-3.763224
33
1.649572
0
3DFACE
8
1
62
168
10
2.340796
20
-1.833333
30
1.353954
11
2.081122
21
-3.763224
31
1.649572
12
2.482739
22
-3.763224
32
0.962285
13
2.482739
23
-3.763224
33
0.962285
0
3DFACE
8
1
62
168
10
2.742414
20
-1.833333
30
0.666667
11
2.482739
21
-3.763224
31
0.962285
12
2.819129
22
-3.831985
32
0.808624
13
2.819129
23
-3.831985
33
0.808624
0
3DFACE
8
1
62
168
10
2.223065
20
-5.693115
30
1.257903
11
2.559455
21
-5.761876
31
1.104242
12
2.482739
22
-3.763224
32
0.962285
13
2.482739
23
-3.763224
33
0.962285
0
3DFACE
8
1
62
168
10
2.895845
20
-5.830637
30
0.950582
11
2.819129
21
-3.831985
31
0.808624
12
2.559455
22
-5.761876
32
1.104242
13
2.559455
23
-5.761876
33
1.104242
0
3DFACE
8
1
62
168
10
2.482739
20
-3.763224
30
0.962285
11
2.559455
21
-5.761876
31
1.104242
12
2.819129
22
-3.831985
32
0.808624
13
2.819129
23
-3.831985
33
0.808624
0
3DFACE
8
1
62
168
10
3.166667
20
3.000000
30
0.333333
11
2.702919
21
3.000000
31
1.178511
12
2.898139
22
1.790659
32
1.203517
13
2.898139
23
1.790659
33
1.203517
0
3DFACE
8
1
62
168
10
2.239172
20
3.000000
30
2.023689
11
2.198470
21
1.787010
31
1.987025
12
2.702919
22
3.000000
32
1.178511
13
2.702919
23
3.000000
33
1.178511
0
3DFACE
8
1
62
168
10
2.157768
20
0.574020
30
1.950361
11
2.898139
21
1.790659
31
1.203517
12
2.198470
22
1.787010
32
1.987025
13
2.198470
23
1.787010
33
1.987025
0
3DFACE
8
1
62
168
10
2.702919
20
3.000000
30
1.178511
11
2.198470
21
1.787010
31
1.987025
12
2.898139
22
1.790659
32
1.203517
13
2.898139
23
1.790659
33
1.203517
0
3DFACE
8
1
62
168
10
3.002240
20
0.581744
30
0.340102
11
3.084453
21
1.790872
31
0.336718
12
2.580004
22
0.577882
32
1.145231
13
2.580004
23
0.577882
33
1.145231
0
3DFACE
8
1
62
168
10
3.166667
20
3.000000
30
0.333333
11
2.898139
21
1.790659
31
1.203517
12
3.084453
22
1.790872
32
0.336718
13
3.084453
23
1.790872
33
0.336718
0
3DFACE
8
1
62
168
10
2.157768
20
0.574020
30
1.950361
11
2.580004
21
0.577882
31
1.145231
12
2.898139
22
1.790659
32
1.203517
13
2.898139
23
1.790659
33
1.203517
0
3DFACE
8
1
62
168
10
3.084453
20
1.790872
30
0.336718
11
2.898139
21
1.790659
31
1.203517
12
2.580004
22
0.577882
32
1.145231
13
2.580004
23
0.577882
33
1.145231
0
3DFACE
8
1
62
168
10
2.742414
20
-1.833333
30
0.666667
11
2.872327
21
-0.625795
31
0.503384
12
2.450091
22
-0.629657
32
1.308514
13
2.450091
23
-0.629657
33
1.308514
0
3DFACE
8
1
62
168
10
3.002240
20
0.581744
30
0.340102
11
2.580004
21
0.577882
31
1.145231
12
2.872327
22
-0.625795
32
0.503384
13
2.872327
23
-0.625795
33
0.503384
0
3DFACE
8
1
62
168
10
2.157768
20
0.574020
30
1.950361
11
2.450091
21
-0.629657
31
1.308514
12
2.580004
22
0.577882
32
1.145231
13
2.580004
23
0.577882
33
1.145231
0
3DFACE
8
1
62
168
10
2.872327
20
-0.625795
30
0.503384
11
2.580004
21
0.577882
31
1.145231
12
2.450091
22
-0.629657
32
1.308514
13
2.450091
23
-0.629657
33
1.308514
0
3DFACE
8
1
62
168
10
2.742414
20
-1.833333
30
0.666667
11
2.450091
21
-0.629657
31
1.308514
12
2.340796
22
-1.833333
32
1.353954
13
2.340796
23
-1.833333
33
1.353954
0
3DFACE
8
1
62
168
10
2.157768
20
0.574020
30
1.950361
11
2.048474
21
-0.629657
31
1.995801
12
2.450091
22
-0.629657
32
1.308514
13
2.450091
23
-0.629657
33
1.308514
0
3DFACE
8
1
62
168
10
1.939179
20
-1.833333
30
2.041241
11
2.340796
21
-1.833333
31
1.353954
12
2.048474
22
-0.629657
32
1.995801
13
2.048474
23
-0.629657
33
1.995801
0
3DFACE
8
1
62
168
10
2.450091
20
-0.629657
30
1.308514
11
2.048474
21
-0.629657
31
1.995801
12
2.340796
22
-1.833333
32
1.353954
13
2.340796
23
-1.833333
33
1.353954
0
3DFACE
8
1
62
168
10
2.742414
20
-1.833333
30
0.666667
11
2.340796
21
-1.833333
31
1.353954
12
2.482739
22
-3.763224
32
0.962285
13
2.482739
23
-3.763224
33
0.962285
0
3DFACE
8
1
62
168
10
1.939179
20
-1.833333
30
2.041241
11
2.081122
21
-3.763224
31
1.649572
12
2.340796
22
-1.833333
32
1.353954
13
2.340796
23
-1.833333
33
1.353954
0
3DFACE
8
1
62
168
10
2.223065
20
-5.693115
30
1.257903
11
2.482739
21
-3.763224
31
0.962285
12
2.081122
22
-3.763224
32
1.649572
13
2.081122
23
-3.763224
33
1.649572
0
3DFACE
8
1
62
168
10
2.340796
20
-1.833333
30
1.353954
11
2.081122
21
-3.763224
31
1.649572
12
2.482739
22
-3.763224
32
0.962285
13
2.482739
23
-3.763224
33
0.962285
0
3DFACE
8
1
62
168
10
2.223065
20
-5.693115
30
1.257903
11
2.559455
21
-5.761876
31
1.104242
12
2.482739
22
-3.763224
32
0.962285
13
2.482739
23
-3.763224
33
0.962285
0
3DFACE
8
1
62
168
10
2.895845
20
-5.830637
30
0.950582
11
2.819129
21
-3.831985
31
0.808624
12
2.559455
22
-5.761876
32
1.104242
13
2.559455
23
-5.761876
33
1.104242
0
3DFACE
8
1
62
168
10
2.742414
20
-1.833333
30
0.666667
11
2.482739
21
-3.763224
31
0.962285
12
2.819129
22
-3.831985
32
0.808624
13
2.819129
23
-3.831985
33
0.808624
0
3DFACE
8
1
62
168
10
2.559455
20
-5.761876
30
1.104242
11
2.819129
21
-3.831985
31
0.808624
12
2.482739
22
-3.763224
32
0.962285
13
2.482739
23
-3.763224
33
0.962285
0
3DFACE
8
1
62
254
10
2.157768
20
0.574020
30
1.950361
11
2.198470
21
1.787010
31
1.987025
12
1.186479
22
1.104635
32
2.890564
13
1.186479
23
1.104635
33
2.890564
0
3DFACE
8
1
62
254
10
2.239172
20
3.000000
30
2.023689
11
1.202313
21
2.370802
31
2.913374
12
2.198470
22
1.787010
32
1.987025
13
2.198470
23
1.787010
33
1.987025
0
3DFACE
8
1
62
254
10
0.000000
20
1.666667
30
3.333333
11
1.186479
21
1.104635
31
2.890564
12
1.202313
22
2.370802
32
2.913374
13
1.202313
23
2.370802
33
2.913374
0
3DFACE
8
1
62
254
10
2.198470
20
1.787010
30
1.987025
11
1.202313
21
2.370802
31
2.913374
12
1.186479
22
1.104635
32
2.890564
13
1.186479
23
1.104635
33
2.890564
0
3DFACE
8
1
62
254
10
1.939179
20
-1.833333
30
2.041241
11
2.048474
21
-0.629657
31
1.995801
12
1.035222
22
-0.108027
32
2.924790
13
1.035222
23
-0.108027
33
2.924790
0
3DFACE
8
1
62
254
10
2.157768
20
0.574020
30
1.950361
11
1.186479
21
1.104635
31
2.890564
12
2.048474
22
-0.629657
32
1.995801
13
2.048474
23
-0.629657
33
1.995801
0
3DFACE
8
1
62
254
10
0.000000
20
1.666667
30
3.333333
11
1.035222
21
-0.108027
31
2.924790
12
1.186479
22
1.104635
32
2.890564
13
1.186479
23
1.104635
33
2.890564
0
3DFACE
8
1
62
254
10
2.048474
20
-0.629657
30
1.995801
11
1.186479
21
1.104635
31
2.890564
12
1.035222
22
-0.108027
32
2.924790
13
1.035222
23
-0.108027
33
2.924790
0
3DFACE
8
1
62
254
10
1.939179
20
-1.833333
30
2.041241
11
1.035222
21
-0.108027
31
2.924790
12
1.036195
22
-2.205115
32
2.641602
13
1.036195
23
-2.205115
33
2.641602
0
3DFACE
8
1
62
254
10
0.000000
20
1.666667
30
3.333333
11
0.000099
21
-0.436451
31
3.265570
12
1.035222
22
-0.108027
32
2.924790
13
1.035222
23
-0.108027
33
2.924790
0
3DFACE
8
1
62
254
10
0.000000
20
-2.500000
30
2.886751
11
1.036195
21
-2.205115
31
2.641602
12
0.000099
22
-0.436451
32
3.265570
13
0.000099
23
-0.436451
33
3.265570
0
3DFACE
8
1
62
254
10
1.035222
20
-0.108027
30
2.924790
11
0.000099
21
-0.436451
31
3.265570
12
1.036195
22
-2.205115
32
2.641602
13
1.036195
23
-2.205115
33
2.641602
0
3DFACE
8
1
62
168
10
1.939179
20
-2.500000
30
-2.041241
11
1.070284
21
-2.489802
31
-2.668463
12
1.083366
22
-0.427004
32
-2.986766
13
1.083366
23
-0.427004
33
-2.986766
0
3DFACE
8
1
62
168
10
0.000000
20
-2.500000
30
-2.886751
11
0.000000
21
-0.422137
31
-3.070990
12
1.070284
22
-2.489802
32
-2.668463
13
1.070284
23
-2.489802
33
-2.668463
0
3DFACE
8
1
62
168
10
0.000000
20
1.666667
30
-3.333333
11
1.083366
21
-0.427004
31
-2.986766
12
0.000000
22
-0.422137
32
-3.070990
13
0.000000
23
-0.422137
33
-3.070990
0
3DFACE
8
1
62
168
10
1.070284
20
-2.489802
30
-2.668463
11
0.000000
21
-0.422137
31
-3.070990
12
1.083366
22
-0.427004
32
-2.986766
13
1.083366
23
-0.427004
33
-2.986766
0
3DFACE
8
1
62
168
10
0.000000
20
1.666667
30
-3.333333
11
1.233202
21
1.691648
31
-3.081416
12
1.083366
22
-0.427004
32
-2.986766
13
1.083366
23
-0.427004
33
-2.986766
0
3DFACE
8
1
62
168
10
2.239172
20
1.666667
30
-2.357023
11
2.146416
21
-0.416511
31
-2.245164
12
1.233202
22
1.691648
32
-3.081416
13
1.233202
23
1.691648
33
-3.081416
0
3DFACE
8
1
62
168
10
1.939179
20
-2.500000
30
-2.041241
11
1.083366
21
-0.427004
31
-2.986766
12
2.146416
22
-0.416511
32
-2.245164
13
2.146416
23
-0.416511
33
-2.245164
0
3DFACE
8
1
62
168
10
1.233202
20
1.691648
30
-3.081416
11
2.146416
21
-0.416511
31
-2.245164
12
1.083366
22
-0.427004
32
-2.986766
13
1.083366
23
-0.427004
33
-2.986766
0
3DFACE
8
1
62
168
10
2.239172
20
1.666667
30
-2.357023
11
2.941878
21
2.370638
31
-1.095975
12
2.830811
22
1.011269
32
-1.115953
13
2.830811
23
1.011269
33
-1.115953
0
3DFACE
8
1
62
168
10
3.166667
20
3.000000
30
0.333333
11
3.084453
21
1.790872
31
0.336718
12
2.941878
22
2.370638
32
-1.095975
13
2.941878
23
2.370638
33
-1.095975
0
3DFACE
8
1
62
168
10
3.002240
20
0.581744
30
0.340102
11
2.830811
21
1.011269
31
-1.115953
12
3.084453
22
1.790872
32
0.336718
13
3.084453
23
1.790872
33
0.336718
0
3DFACE
8
1
62
168
10
2.941878
20
2.370638
30
-1.095975
11
3.084453
21
1.790872
31
0.336718
12
2.830811
22
1.011269
32
-1.115953
13
2.830811
23
1.011269
33
-1.115953
0
3DFACE
8
1
62
168
10
1.939179
20
-2.500000
30
-2.041241
11
2.146416
21
-0.416511
31
-2.245164
12
2.577620
22
-0.963162
32
-0.910741
13
2.577620
23
-0.963162
33
-0.910741
0
3DFACE
8
1
62
168
10
2.239172
20
1.666667
30
-2.357023
11
2.830811
21
1.011269
31
-1.115953
12
2.146416
22
-0.416511
32
-2.245164
13
2.146416
23
-0.416511
33
-2.245164
0
3DFACE
8
1
62
168
10
3.002240
20
0.581744
30
0.340102
11
2.577620
21
-0.963162
31
-0.910741
12
2.830811
22
1.011269
32
-1.115953
13
2.830811
23
1.011269
33
-1.115953
0
3DFACE
8
1
62
168
10
2.146416
20
-0.416511
30
-2.245164
11
2.830811
21
1.011269
31
-1.115953
12
2.577620
22
-0.963162
32
-0.910741
13
2.577620
23
-0.963162
33
-0.910741
0
3DFACE
8
1
62
168
10
1.939179
20
-2.500000
30
-2.041241
11
2.577620
21
-0.963162
31
-0.910741
12
2.694449
22
-2.203377
32
-0.728752
13
2.694449
23
-2.203377
33
-0.728752
0
3DFACE
8
1
62
168
10
3.002240
20
0.581744
30
0.340102
11
2.872327
21
-0.625795
31
0.503384
12
2.577620
22
-0.963162
32
-0.910741
13
2.577620
23
-0.963162
33
-0.910741
0
3DFACE
8
1
62
168
10
2.742414
20
-1.833333
30
0.666667
11
2.694449
21
-2.203377
31
-0.728752
12
2.872327
22
-0.625795
32
0.503384
13
2.872327
23
-0.625795
33
0.503384
0
3DFACE
8
1
62
168
10
2.577620
20
-0.963162
30
-0.910741
11
2.872327
21
-0.625795
31
0.503384
12
2.694449
22
-2.203377
32
-0.728752
13
2.694449
23
-2.203377
33
-0.728752
0
3DFACE
8
1
62
168
10
1.583333
20
-4.883545
30
-2.000000
11
1.414934
21
-4.881032
31
-2.633407
12
1.835601
22
-3.710307
32
-2.053942
13
1.835601
23
-3.710307
33
-2.053942
0
3DFACE
8
1
62
168
10
1.119586
20
-4.883545
30
-3.178511
11
1.526543
21
-3.688740
31
-2.614377
12
1.414934
22
-4.881032
32
-2.633407
13
1.414934
23
-4.881032
33
-2.633407
0
3DFACE
8
1
62
168
10
1.939179
20
-2.500000
30
-2.041241
11
1.835601
21
-3.710307
31
-2.053942
12
1.526543
22
-3.688740
32
-2.614377
13
1.526543
23
-3.688740
33
-2.614377
0
3DFACE
8
1
62
168
10
1.414934
20
-4.881032
30
-2.633407
11
1.526543
21
-3.688740
31
-2.614377
12
1.835601
22
-3.710307
32
-2.053942
13
1.835601
23
-3.710307
33
-2.053942
0
3DFACE
8
1
62
168
10
1.939179
20
-2.500000
30
-2.041241
11
2.694449
21
-2.203377
31
-0.728752
12
1.835601
22
-3.710307
32
-2.053942
13
1.835601
23
-3.710307
33
-2.053942
0
3DFACE
8
1
62
168
10
2.742414
20
-1.833333
30
0.666667
11
2.514340
21
-3.454970
31
-0.630789
12
2.694449
22
-2.203377
32
-0.728752
13
2.694449
23
-2.203377
33
-0.728752
0
3DFACE
8
1
62
168
10
1.583333
20
-4.883545
30
-2.000000
11
1.835601
21
-3.710307
31
-2.053942
12
2.514340
22
-3.454970
32
-0.630789
13
2.514340
23
-3.454970
33
-0.630789
0
3DFACE
8
1
62
168
10
2.694449
20
-2.203377
30
-0.728752
11
2.514340
21
-3.454970
31
-0.630789
12
1.835601
22
-3.710307
32
-2.053942
13
1.835601
23
-3.710307
33
-2.053942
0
3DFACE
8
1
62
31
10
2.859064
20
-7.220626
30
2.226521
11
2.426124
21
-7.476997
31
2.095020
12
2.865908
22
-7.566369
32
3.332201
13
2.865908
23
-7.566369
33
3.332201
0
3DFACE
8
1
62
31
10
2.034466
20
-7.792618
30
1.913953
11
1.997508
21
-7.924992
31
3.339189
12
2.426124
22
-7.476997
32
2.095020
13
2.426124
23
-7.476997
33
2.095020
0
3DFACE
8
1
62
31
10
2.510233
20
-7.802428
30
4.545553
11
2.865908
21
-7.566369
31
3.332201
12
1.997508
22
-7.924992
32
3.339189
13
1.997508
23
-7.924992
33
3.339189
0
3DFACE
8
1
62
31
10
2.426124
20
-7.476997
30
2.095020
11
1.997508
21
-7.924992
31
3.339189
12
2.865908
22
-7.566369
32
3.332201
13
2.865908
23
-7.566369
33
3.332201
0
3DFACE
8
1
62
31
10
3.691432
20
-7.422593
30
2.452826
11
3.221902
21
-7.342265
31
2.398520
12
3.089839
22
-7.637536
32
3.483634
13
3.089839
23
-7.637536
33
3.483634
0
3DFACE
8
1
62
31
10
2.859064
20
-7.220626
30
2.226521
11
2.865908
21
-7.566369
31
3.332201
12
3.221902
22
-7.342265
32
2.398520
13
3.221902
23
-7.342265
33
2.398520
0
3DFACE
8
1
62
31
10
2.510233
20
-7.802428
30
4.545553
11
3.089839
21
-7.637536
31
3.483634
12
2.865908
22
-7.566369
32
3.332201
13
2.865908
23
-7.566369
33
3.332201
0
3DFACE
8
1
62
31
10
3.221902
20
-7.342265
30
2.398520
11
2.865908
21
-7.566369
31
3.332201
12
3.089839
22
-7.637536
32
3.483634
13
3.089839
23
-7.637536
33
3.483634
0
3DFACE
8
1
62
31
10
2.510233
20
-7.802428
30
4.545553
11
3.753794
21
-7.994578
31
4.566191
12
3.089839
22
-7.637536
32
3.483634
13
3.089839
23
-7.637536
33
3.483634
0
3DFACE
8
1
62
31
10
4.535104
20
-7.991339
30
3.756217
11
4.214136
21
-7.736073
31
3.059867
12
3.753794
22
-7.994578
32
4.566191
13
3.753794
23
-7.994578
33
4.566191
0
3DFACE
8
1
62
31
10
3.691432
20
-7.422593
30
2.452826
11
3.089839
21
-7.637536
31
3.483634
12
4.214136
22
-7.736073
32
3.059867
13
4.214136
23
-7.736073
33
3.059867
0
3DFACE
8
1
62
31
10
3.753794
20
-7.994578
30
4.566191
11
4.214136
21
-7.736073
31
3.059867
12
3.089839
22
-7.637536
32
3.483634
13
3.089839
23
-7.637536
33
3.483634
0
3DFACE
8
1
62
31
10
3.691432
20
-7.422593
30
2.452826
11
4.214136
21
-7.736073
31
3.059867
12
2.875191
22
-7.636927
32
2.163626
13
2.875191
23
-7.636927
33
2.163626
0
3DFACE
8
1
62
31
10
4.535104
20
-7.991339
30
3.756217
11
3.286695
21
-7.899106
31
2.831579
12
4.214136
22
-7.736073
32
3.059867
13
4.214136
23
-7.736073
33
3.059867
0
3DFACE
8
1
62
31
10
2.034466
20
-7.792618
30
1.913953
11
2.875191
21
-7.636927
31
2.163626
12
3.286695
22
-7.899106
32
2.831579
13
3.286695
23
-7.899106
33
2.831579
0
3DFACE
8
1
62
31
10
4.214136
20
-7.736073
30
3.059867
11
3.286695
21
-7.899106
31
2.831579
12
2.875191
22
-7.636927
32
2.163626
13
2.875191
23
-7.636927
33
2.163626
0
3DFACE
8
1
62
31
10
2.018574
20
-6.646581
30
0.761948
11
2.144299
21
-7.219435
31
1.294923
12
2.526697
22
-6.876132
32
1.481150
13
2.526697
23
-6.876132
33
1.481150
0
3DFACE
8
1
62
31
10
2.034466
20
-7.792618
30
1.913953
11
2.426124
21
-7.476997
31
2.095020
12
2.144299
22
-7.219435
32
1.294923
13
2.144299
23
-7.219435
33
1.294923
0
3DFACE
8
1
62
31
10
2.859064
20
-7.220626
30
2.226521
11
2.526697
21
-6.876132
31
1.481150
12
2.426124
22
-7.476997
32
2.095020
13
2.426124
23
-7.476997
33
2.095020
0
3DFACE
8
1
62
31
10
2.144299
20
-7.219435
30
1.294923
11
2.426124
21
-7.476997
31
2.095020
12
2.526697
22
-6.876132
32
1.481150
13
2.526697
23
-6.876132
33
1.481150
0
3DFACE
8
1
62
31
10
2.018574
20
-6.646581
30
0.761948
11
2.526697
21
-6.876132
31
1.481150
12
2.185089
22
-6.180517
32
1.060431
13
2.185089
23
-6.180517
33
1.060431
0
3DFACE
8
1
62
31
10
2.859064
20
-7.220626
30
2.226521
11
2.528876
21
-6.571310
31
1.517277
12
2.526697
22
-6.876132
32
1.481150
13
2.526697
23
-6.876132
33
1.481150
0
3DFACE
8
1
62
31
10
2.223065
20
-5.693115
30
1.257903
11
2.185089
21
-6.180517
31
1.060431
12
2.528876
22
-6.571310
32
1.517277
13
2.528876
23
-6.571310
33
1.517277
0
3DFACE
8
1
62
31
10
2.526697
20
-6.876132
30
1.481150
11
2.528876
21
-6.571310
31
1.517277
12
2.185089
22
-6.180517
32
1.060431
13
2.185089
23
-6.180517
33
1.060431
0
3DFACE
8
1
62
31
10
2.895845
20
-5.830637
30
0.950582
11
2.559455
21
-5.761876
31
1.104242
12
2.808019
22
-6.642211
32
1.487390
13
2.808019
23
-6.642211
33
1.487390
0
3DFACE
8
1
62
31
10
2.223065
20
-5.693115
30
1.257903
11
2.528876
21
-6.571310
31
1.517277
12
2.559455
22
-5.761876
32
1.104242
13
2.559455
23
-5.761876
33
1.104242
0
3DFACE
8
1
62
31
10
2.859064
20
-7.220626
30
2.226521
11
2.808019
21
-6.642211
31
1.487390
12
2.528876
22
-6.571310
32
1.517277
13
2.528876
23
-6.571310
33
1.517277
0
3DFACE
8
1
62
31
10
2.559455
20
-5.761876
30
1.104242
11
2.528876
21
-6.571310
31
1.517277
12
2.808019
22
-6.642211
32
1.487390
13
2.808019
23
-6.642211
33
1.487390
0
3DFACE
8
1
62
31
10
2.859064
20
-7.220626
30
2.226521
11
3.221902
21
-7.342265
31
2.398520
12
2.808019
22
-6.642211
32
1.487390
13
2.808019
23
-6.642211
33
1.487390
0
3DFACE
8
1
62
31
10
3.691432
20
-7.422593
30
2.452826
11
3.117713
21
-6.760974
31
1.613585
12
3.221902
22
-7.342265
32
2.398520
13
3.221902
23
-7.342265
33
2.398520
0
3DFACE
8
1
62
31
10
2.895845
20
-5.830637
30
0.950582
11
2.808019
21
-6.642211
31
1.487390
12
3.117713
22
-6.760974
32
1.613585
13
3.117713
23
-6.760974
33
1.613585
0
3DFACE
8
1
62
31
10
3.221902
20
-7.342265
30
2.398520
11
3.117713
21
-6.760974
31
1.613585
12
2.808019
22
-6.642211
32
1.487390
13
2.808019
23
-6.642211
33
1.487390
0
3DFACE
8
1
62
31
10
2.018574
20
-6.646581
30
0.761948
11
2.487432
21
-6.260419
31
0.827774
12
2.720172
22
-7.139750
32
1.622724
13
2.720172
23
-7.139750
33
1.622724
0
3DFACE
8
1
62
31
10
2.895845
20
-5.830637
30
0.950582
11
3.117713
21
-6.760974
31
1.613585
12
2.487432
22
-6.260419
32
0.827774
13
2.487432
23
-6.260419
33
0.827774
0
3DFACE
8
1
62
31
10
3.691432
20
-7.422593
30
2.452826
11
2.720172
21
-7.139750
31
1.622724
12
3.117713
22
-6.760974
32
1.613585
13
3.117713
23
-6.760974
33
1.613585
0
3DFACE
8
1
62
31
10
2.487432
20
-6.260419
30
0.827774
11
3.117713
21
-6.760974
31
1.613585
12
2.720172
22
-7.139750
32
1.622724
13
2.720172
23
-7.139750
33
1.622724
0
3DFACE
8
1
62
31
10
3.691432
20
-7.422593
30
2.452826
11
2.875191
21
-7.636927
31
2.163626
12
2.720172
22
-7.139750
32
1.622724
13
2.720172
23
-7.139750
33
1.622724
0
3DFACE
8
1
62
31
10
2.034466
20
-7.792618
30
1.913953
11
2.144299
21
-7.219435
31
1.294923
12
2.875191
22
-7.636927
32
2.163626
13
2.875191
23
-7.636927
33
2.163626
0
3DFACE
8
1
62
31
10
2.018574
20
-6.646581
30
0.761948
11
2.720172
21
-7.139750
31
1.622724
12
2.144299
22
-7.219435
32
1.294923
13
2.144299
23
-7.219435
33
1.294923
0
3DFACE
8
1
62
31
10
2.875191
20
-7.636927
30
2.163626
11
2.144299
21
-7.219435
31
1.294923
12
2.720172
22
-7.139750
32
1.622724
13
2.720172
23
-7.139750
33
1.622724
0
3DFACE
8
1
62
168
10
1.583333
20
-4.883545
30
-2.000000
11
1.611204
21
-5.844782
31
-0.579870
12
1.636752
22
-5.633355
32
-0.321303
13
1.636752
23
-5.633355
33
-0.321303
0
3DFACE
8
1
62
168
10
2.018574
20
-6.646581
30
0.761948
11
1.570329
21
-6.119740
31
0.723271
12
1.611204
22
-5.844782
32
-0.579870
13
1.611204
23
-5.844782
33
-0.579870
0
3DFACE
8
1
62
168
10
1.119586
20
-5.550211
30
1.178511
11
1.636752
21
-5.633355
31
-0.321303
12
1.570329
22
-6.119740
32
0.723271
13
1.570329
23
-6.119740
33
0.723271
0
3DFACE
8
1
62
168
10
1.611204
20
-5.844782
30
-0.579870
11
1.570329
21
-6.119740
31
0.723271
12
1.636752
22
-5.633355
32
-0.321303
13
1.636752
23
-5.633355
33
-0.321303
0
3DFACE
8
1
62
168
10
1.119586
20
-5.550211
30
1.178511
11
1.570329
21
-6.119740
31
0.723271
12
1.618265
22
-5.675673
32
1.172062
13
1.618265
23
-5.675673
33
1.172062
0
3DFACE
8
1
62
168
10
2.018574
20
-6.646581
30
0.761948
11
2.185089
21
-6.180517
31
1.060431
12
1.570329
22
-6.119740
32
0.723271
13
1.570329
23
-6.119740
33
0.723271
0
3DFACE
8
1
62
168
10
2.223065
20
-5.693115
30
1.257903
11
1.618265
21
-5.675673
31
1.172062
12
2.185089
22
-6.180517
32
1.060431
13
2.185089
23
-6.180517
33
1.060431
0
3DFACE
8
1
62
168
10
1.570329
20
-6.119740
30
0.723271
11
2.185089
21
-6.180517
31
1.060431
12
1.618265
22
-5.675673
32
1.172062
13
1.618265
23
-5.675673
33
1.172062
0
3DFACE
8
1
62
168
10
1.119586
20
-5.550211
30
1.178511
11
1.618265
21
-5.675673
31
1.172062
12
1.650396
22
-3.791801
32
1.826768
13
1.650396
23
-3.791801
33
1.826768
0
3DFACE
8
1
62
168
10
2.223065
20
-5.693115
30
1.257903
11
2.081122
21
-3.763224
31
1.649572
12
1.618265
22
-5.675673
32
1.172062
13
1.618265
23
-5.675673
33
1.172062
0
3DFACE
8
1
62
168
10
1.939179
20
-1.833333
30
2.041241
11
1.650396
21
-3.791801
31
1.826768
12
2.081122
22
-3.763224
32
1.649572
13
2.081122
23
-3.763224
33
1.649572
0
3DFACE
8
1
62
168
10
1.618265
20
-5.675673
30
1.172062
11
2.081122
21
-3.763224
31
1.649572
12
1.650396
22
-3.791801
32
1.826768
13
1.650396
23
-3.791801
33
1.826768
0
3DFACE
8
1
62
168
10
1.583333
20
-4.883545
30
-2.000000
11
2.514340
21
-3.454970
31
-0.630789
12
2.413614
22
-5.067268
32
-0.283440
13
2.413614
23
-5.067268
33
-0.283440
0
3DFACE
8
1
62
168
10
2.742414
20
-1.833333
30
0.666667
11
2.819129
21
-3.831985
31
0.808624
12
2.514340
22
-3.454970
32
-0.630789
13
2.514340
23
-3.454970
33
-0.630789
0
3DFACE
8
1
62
168
10
2.895845
20
-5.830637
30
0.950582
11
2.413614
21
-5.067268
31
-0.283440
12
2.819129
22
-3.831985
32
0.808624
13
2.819129
23
-3.831985
33
0.808624
0
3DFACE
8
1
62
168
10
2.514340
20
-3.454970
30
-0.630789
11
2.819129
21
-3.831985
31
0.808624
12
2.413614
22
-5.067268
32
-0.283440
13
2.413614
23
-5.067268
33
-0.283440
0
3DFACE
8
1
62
168
10
2.895845
20
-5.830637
30
0.950582
11
2.487432
21
-6.260419
31
0.827774
12
2.413614
22
-5.067268
32
-0.283440
13
2.413614
23
-5.067268
33
-0.283440
0
3DFACE
8
1
62
168
10
2.018574
20
-6.646581
30
0.761948
11
1.611204
21
-5.844782
31
-0.579870
12
2.487432
22
-6.260419
32
0.827774
13
2.487432
23
-6.260419
33
0.827774
0
3DFACE
8
1
62
168
10
1.583333
20
-4.883545
30
-2.000000
11
2.413614
21
-5.067268
31
-0.283440
12
1.611204
22
-5.844782
32
-0.579870
13
1.611204
23
-5.844782
33
-0.579870
0
3DFACE
8
1
62
168
10
2.487432
20
-6.260419
30
0.827774
11
1.611204
21
-5.844782
31
-0.579870
12
2.413614
22
-5.067268
32
-0.283440
13
2.413614
23
-5.067268
33
-0.283440
0
3DFACE
8
1
62
31
10
2.510233
20
-7.802428
30
4.545553
11
1.997508
21
-7.924992
31
3.339189
12
3.753794
22
-7.994578
32
4.566191
13
3.753794
23
-7.994578
33
4.566191
0
3DFACE
8
1
62
31
10
2.034466
20
-7.792618
30
1.913953
11
3.286695
21
-7.899106
31
2.831579
12
1.997508
22
-7.924992
32
3.339189
13
1.997508
23
-7.924992
33
3.339189
0
3DFACE
8
1
62
31
10
4.535104
20
-7.991339
30
3.756217
11
3.753794
21
-7.994578
31
4.566191
12
3.286695
22
-7.899106
32
2.831579
13
3.286695
23
-7.899106
33
2.831579
0
3DFACE
8
1
62
31
10
1.997508
20
-7.924992
30
3.339189
11
3.286695
21
-7.899106
31
2.831579
12
3.753794
22
-7.994578
32
4.566191
13
3.753794
23
-7.994578
33
4.566191
0
3DFACE
8
1
62
31
10
-2.859064
20
-7.220626
30
2.226521
11
-2.865908
21
-7.566369
31
3.332201
12
-2.426124
22
-7.476997
32
2.095020
13
-2.426124
23
-7.476997
33
2.095020
0
3DFACE
8
1
62
31
10
-2.510233
20
-7.802428
30
4.545553
11
-1.997508
21
-7.924992
31
3.339189
12
-2.865908
22
-7.566369
32
3.332201
13
-2.865908
23
-7.566369
33
3.332201
0
3DFACE
8
1
62
31
10
-2.034466
20
-7.792618
30
1.913953
11
-2.426124
21
-7.476997
31
2.095020
12
-1.997508
22
-7.924992
32
3.339189
13
-1.997508
23
-7.924992
33
3.339189
0
3DFACE
8
1
62
31
10
-2.865908
20
-7.566369
30
3.332201
11
-1.997508
21
-7.924992
31
3.339189
12
-2.426124
22
-7.476997
32
2.095020
13
-2.426124
23
-7.476997
33
2.095020
0
3DFACE
8
1
62
31
10
-2.510233
20
-7.802428
30
4.545553
11
-2.865908
21
-7.566369
31
3.332201
12
-3.089839
22
-7.637536
32
3.483634
13
-3.089839
23
-7.637536
33
3.483634
0
3DFACE
8
1
62
31
10
-2.859064
20
-7.220626
30
2.226521
11
-3.221902
21
-7.342265
31
2.398520
12
-2.865908
22
-7.566369
32
3.332201
13
-2.865908
23
-7.566369
33
3.332201
0
3DFACE
8
1
62
31
10
-3.691432
20
-7.422593
30
2.452826
11
-3.089839
21
-7.637536
31
3.483634
12
-3.221902
22
-7.342265
32
2.398520
13
-3.221902
23
-7.342265
33
2.398520
0
3DFACE
8
1
62
31
10
-2.865908
20
-7.566369
30
3.332201
11
-3.221902
21
-7.342265
31
2.398520
12
-3.089839
22
-7.637536
32
3.483634
13
-3.089839
23
-7.637536
33
3.483634
0
3DFACE
8
1
62
31
10
-3.691432
20
-7.422593
30
2.452826
11
-4.214136
21
-7.736073
31
3.059867
12
-3.089839
22
-7.637536
32
3.483634
13
-3.089839
23
-7.637536
33
3.483634
0
3DFACE
8
1
62
31
10
-4.535104
20
-7.991339
30
3.756217
11
-3.753794
21
-7.994578
31
4.566191
12
-4.214136
22
-7.736073
32
3.059867
13
-4.214136
23
-7.736073
33
3.059867
0
3DFACE
8
1
62
31
10
-2.510233
20
-7.802428
30
4.545553
11
-3.089839
21
-7.637536
31
3.483634
12
-3.753794
22
-7.994578
32
4.566191
13
-3.753794
23
-7.994578
33
4.566191
0
3DFACE
8
1
62
31
10
-4.214136
20
-7.736073
30
3.059867
11
-3.753794
21
-7.994578
31
4.566191
12
-3.089839
22
-7.637536
32
3.483634
13
-3.089839
23
-7.637536
33
3.483634
0
3DFACE
8
1
62
31
10
-3.691432
20
-7.422593
30
2.452826
11
-2.875191
21
-7.636927
31
2.163626
12
-4.214136
22
-7.736073
32
3.059867
13
-4.214136
23
-7.736073
33
3.059867
0
3DFACE
8
1
62
31
10
-2.034466
20
-7.792618
30
1.913953
11
-3.286695
21
-7.899106
31
2.831579
12
-2.875191
22
-7.636927
32
2.163626
13
-2.875191
23
-7.636927
33
2.163626
0
3DFACE
8
1
62
31
10
-4.535104
20
-7.991339
30
3.756217
11
-4.214136
21
-7.736073
31
3.059867
12
-3.286695
22
-7.899106
32
2.831579
13
-3.286695
23
-7.899106
33
2.831579
0
3DFACE
8
1
62
31
10
-2.875191
20
-7.636927
30
2.163626
11
-3.286695
21
-7.899106
31
2.831579
12
-4.214136
22
-7.736073
32
3.059867
13
-4.214136
23
-7.736073
33
3.059867
0
3DFACE
8
1
62
31
10
-2.018574
20
-6.646581
30
0.761948
11
-2.185089
21
-6.180517
31
1.060431
12
-2.526697
22
-6.876132
32
1.481150
13
-2.526697
23
-6.876132
33
1.481150
0
3DFACE
8
1
62
31
10
-2.223065
20
-5.693115
30
1.257903
11
-2.528876
21
-6.571310
31
1.517277
12
-2.185089
22
-6.180517
32
1.060431
13
-2.185089
23
-6.180517
33
1.060431
0
3DFACE
8
1
62
31
10
-2.859064
20
-7.220626
30
2.226521
11
-2.526697
21
-6.876132
31
1.481150
12
-2.528876
22
-6.571310
32
1.517277
13
-2.528876
23
-6.571310
33
1.517277
0
3DFACE
8
1
62
31
10
-2.185089
20
-6.180517
30
1.060431
11
-2.528876
21
-6.571310
31
1.517277
12
-2.526697
22
-6.876132
32
1.481150
13
-2.526697
23
-6.876132
33
1.481150
0
3DFACE
8
1
62
31
10
-2.018574
20
-6.646581
30
0.761948
11
-2.526697
21
-6.876132
31
1.481150
12
-2.144299
22
-7.219435
32
1.294923
13
-2.144299
23
-7.219435
33
1.294923
0
3DFACE
8
1
62
31
10
-2.859064
20
-7.220626
30
2.226521
11
-2.426124
21
-7.476997
31
2.095020
12
-2.526697
22
-6.876132
32
1.481150
13
-2.526697
23
-6.876132
33
1.481150
0
3DFACE
8
1
62
31
10
-2.034466
20
-7.792618
30
1.913953
11
-2.144299
21
-7.219435
31
1.294923
12
-2.426124
22
-7.476997
32
2.095020
13
-2.426124
23
-7.476997
33
2.095020
0
3DFACE
8
1
62
31
10
-2.526697
20
-6.876132
30
1.481150
11
-2.426124
21
-7.476997
31
2.095020
12
-2.144299
22
-7.219435
32
1.294923
13
-2.144299
23
-7.219435
33
1.294923
0
3DFACE
8
1
62
31
10
-2.859064
20
-7.220626
30
2.226521
11
-2.528876
21
-6.571310
31
1.517277
12
-2.808019
22
-6.642211
32
1.487390
13
-2.808019
23
-6.642211
33
1.487390
0
3DFACE
8
1
62
31
10
-2.223065
20
-5.693115
30
1.257903
11
-2.559455
21
-5.761876
31
1.104242
12
-2.528876
22
-6.571310
32
1.517277
13
-2.528876
23
-6.571310
33
1.517277
0
3DFACE
8
1
62
31
10
-2.895845
20
-5.830637
30
0.950582
11
-2.808019
21
-6.642211
31
1.487390
12
-2.559455
22
-5.761876
32
1.104242
13
-2.559455
23
-5.761876
33
1.104242
0
3DFACE
8
1
62
31
10
-2.528876
20
-6.571310
30
1.517277
11
-2.559455
21
-5.761876
31
1.104242
12
-2.808019
22
-6.642211
32
1.487390
13
-2.808019
23
-6.642211
33
1.487390
0
3DFACE
8
1
62
31
10
-2.895845
20
-5.830637
30
0.950582
11
-3.117713
21
-6.760974
31
1.613585
12
-2.808019
22
-6.642211
32
1.487390
13
-2.808019
23
-6.642211
33
1.487390
0
3DFACE
8
1
62
31
10
-3.691432
20
-7.422593
30
2.452826
11
-3.221902
21
-7.342265
31
2.398520
12
-3.117713
22
-6.760974
32
1.613585
13
-3.117713
23
-6.760974
33
1.613585
0
3DFACE
8
1
62
31
10
-2.859064
20
-7.220626
30
2.226521
11
-2.808019
21
-6.642211
31
1.487390
12
-3.221902
22
-7.342265
32
2.398520
13
-3.221902
23
-7.342265
33
2.398520
0
3DFACE
8
1
62
31
10
-3.117713
20
-6.760974
30
1.613585
11
-3.221902
21
-7.342265
31
2.398520
12
-2.808019
22
-6.642211
32
1.487390
13
-2.808019
23
-6.642211
33
1.487390
0
3DFACE
8
1
62
31
10
-3.691432
20
-7.422593
30
2.452826
11
-3.117713
21
-6.760974
31
1.613585
12
-2.720172
22
-7.139750
32
1.622724
13
-2.720172
23
-7.139750
33
1.622724
0
3DFACE
8
1
62
31
10
-2.895845
20
-5.830637
30
0.950582
11
-2.487432
21
-6.260419
31
0.827774
12
-3.117713
22
-6.760974
32
1.613585
13
-3.117713
23
-6.760974
33
1.613585
0
3DFACE
8
1
62
31
10
-2.018574
20
-6.646581
30
0.761948
11
-2.720172
21
-7.139750
31
1.622724
12
-2.487432
22
-6.260419
32
0.827774
13
-2.487432
23
-6.260419
33
0.827774
0
3DFACE
8
1
62
31
10
-3.117713
20
-6.760974
30
1.613585
11
-2.487432
21
-6.260419
31
0.827774
12
-2.720172
22
-7.139750
32
1.622724
13
-2.720172
23
-7.139750
33
1.622724
0
3DFACE
8
1
62
31
10
-2.018574
20
-6.646581
30
0.761948
11
-2.144299
21
-7.219435
31
1.294923
12
-2.720172
22
-7.139750
32
1.622724
13
-2.720172
23
-7.139750
33
1.622724
0
3DFACE
8
1
62
31
10
-2.034466
20
-7.792618
30
1.913953
11
-2.875191
21
-7.636927
31
2.163626
12
-2.144299
22
-7.219435
32
1.294923
13
-2.144299
23
-7.219435
33
1.294923
0
3DFACE
8
1
62
31
10
-3.691432
20
-7.422593
30
2.452826
11
-2.720172
21
-7.139750
31
1.622724
12
-2.875191
22
-7.636927
32
2.163626
13
-2.875191
23
-7.636927
33
2.163626
0
3DFACE
8
1
62
31
10
-2.144299
20
-7.219435
30
1.294923
11
-2.875191
21
-7.636927
31
2.163626
12
-2.720172
22
-7.139750
32
1.622724
13
-2.720172
23
-7.139750
33
1.622724
0
3DFACE
8
1
62
168
10
-1.583333
20
-4.883545
30
-2.000000
11
-1.636752
21
-5.633355
31
-0.321303
12
-1.611204
22
-5.844782
32
-0.579870
13
-1.611204
23
-5.844782
33
-0.579870
0
3DFACE
8
1
62
168
10
-1.119586
20
-5.550211
30
1.178511
11
-1.570329
21
-6.119740
31
0.723271
12
-1.636752
22
-5.633355
32
-0.321303
13
-1.636752
23
-5.633355
33
-0.321303
0
3DFACE
8
1
62
168
10
-2.018574
20
-6.646581
30
0.761948
11
-1.611204
21
-5.844782
31
-0.579870
12
-1.570329
22
-6.119740
32
0.723271
13
-1.570329
23
-6.119740
33
0.723271
0
3DFACE
8
1
62
168
10
-1.636752
20
-5.633355
30
-0.321303
11
-1.570329
21
-6.119740
31
0.723271
12
-1.611204
22
-5.844782
32
-0.579870
13
-1.611204
23
-5.844782
33
-0.579870
0
3DFACE
8
1
62
168
10
-1.119586
20
-5.550211
30
1.178511
11
-1.649788
21
-3.791710
31
1.826231
12
-1.618265
22
-5.675673
32
1.172062
13
-1.618265
23
-5.675673
33
1.172062
0
3DFACE
8
1
62
168
10
-1.939179
20
-1.833333
30
2.041241
11
-2.081122
21
-3.763224
31
1.649572
12
-1.649788
22
-3.791710
32
1.826231
13
-1.649788
23
-3.791710
33
1.826231
0
3DFACE
8
1
62
168
10
-2.223065
20
-5.693115
30
1.257903
11
-1.618265
21
-5.675673
31
1.172062
12
-2.081122
22
-3.763224
32
1.649572
13
-2.081122
23
-3.763224
33
1.649572
0
3DFACE
8
1
62
168
10
-1.649788
20
-3.791710
30
1.826231
11
-2.081122
21
-3.763224
31
1.649572
12
-1.618265
22
-5.675673
32
1.172062
13
-1.618265
23
-5.675673
33
1.172062
0
3DFACE
8
1
62
168
10
-1.119586
20
-5.550211
30
1.178511
11
-1.618265
21
-5.675673
31
1.172062
12
-1.570329
22
-6.119740
32
0.723271
13
-1.570329
23
-6.119740
33
0.723271
0
3DFACE
8
1
62
168
10
-2.223065
20
-5.693115
30
1.257903
11
-2.185089
21
-6.180517
31
1.060431
12
-1.618265
22
-5.675673
32
1.172062
13
-1.618265
23
-5.675673
33
1.172062
0
3DFACE
8
1
62
168
10
-2.018574
20
-6.646581
30
0.761948
11
-1.570329
21
-6.119740
31
0.723271
12
-2.185089
22
-6.180517
32
1.060431
13
-2.185089
23
-6.180517
33
1.060431
0
3DFACE
8
1
62
168
10
-1.618265
20
-5.675673
30
1.172062
11
-2.185089
21
-6.180517
31
1.060431
12
-1.570329
22
-6.119740
32
0.723271
13
-1.570329
23
-6.119740
33
0.723271
0
3DFACE
8
1
62
168
10
-2.168383
20
0.574239
30
1.962319
11
-2.254863
21
1.793861
31
2.052178
12
-2.895640
22
1.790550
32
1.201447
13
-2.895640
23
1.790550
33
1.201447
0
3DFACE
8
1
62
168
10
-2.239172
20
3.000000
30
2.023689
11
-2.702919
21
3.000000
31
1.178511
12
-2.254863
22
1.793861
32
2.052178
13
-2.254863
23
1.793861
33
2.052178
0
3DFACE
8
1
62
168
10
-3.166667
20
3.000000
30
0.333333
11
-2.895640
21
1.790550
31
1.201447
12
-2.702919
22
3.000000
32
1.178511
13
-2.702919
23
3.000000
33
1.178511
0
3DFACE
8
1
62
168
10
-2.254863
20
1.793861
30
2.052178
11
-2.702919
21
3.000000
31
1.178511
12
-2.895640
22
1.790550
32
1.201447
13
-2.895640
23
1.790550
33
1.201447
0
3DFACE
8
1
62
168
10
-2.168383
20
0.574239
30
1.962319
11
-2.895640
21
1.790550
31
1.201447
12
-2.716744
22
0.566955
32
1.199496
13
-2.716744
23
0.566955
33
1.199496
0
3DFACE
8
1
62
168
10
-3.166667
20
3.000000
30
0.333333
11
-3.171978
21
1.797814
31
0.336187
12
-2.895640
22
1.790550
32
1.201447
13
-2.895640
23
1.790550
33
1.201447
0
3DFACE
8
1
62
168
10
-2.991317
20
0.582396
30
0.339979
11
-2.716744
21
0.566955
31
1.199496
12
-3.171978
22
1.797814
32
0.336187
13
-3.171978
23
1.797814
33
0.336187
0
3DFACE
8
1
62
168
10
-2.895640
20
1.790550
30
1.201447
11
-3.171978
21
1.797814
31
0.336187
12
-2.716744
22
0.566955
32
1.199496
13
-2.716744
23
0.566955
33
1.199496
0
3DFACE
8
1
62
168
10
-2.168383
20
0.574239
30
1.962319
11
-2.716744
21
0.566955
31
1.199496
12
-2.492204
22
-0.632341
32
1.338265
13
-2.492204
23
-0.632341
33
1.338265
0
3DFACE
8
1
62
168
10
-2.991317
20
0.582396
30
0.339979
11
-2.871582
21
-0.625934
31
0.503125
12
-2.716744
22
0.566955
32
1.199496
13
-2.716744
23
0.566955
33
1.199496
0
3DFACE
8
1
62
168
10
-2.742414
20
-1.833333
30
0.666667
11
-2.492204
21
-0.632341
31
1.338265
12
-2.871582
22
-0.625934
32
0.503125
13
-2.871582
23
-0.625934
33
0.503125
0
3DFACE
8
1
62
168
10
-2.716744
20
0.566955
30
1.199496
11
-2.871582
21
-0.625934
31
0.503125
12
-2.492204
22
-0.632341
32
1.338265
13
-2.492204
23
-0.632341
33
1.338265
0
3DFACE
8
1
62
168
10
-1.939179
20
-1.833333
30
2.041241
11
-2.070878
21
-0.631377
31
2.020697
12
-2.340796
22
-1.833333
32
1.353954
13
-2.340796
23
-1.833333
33
1.353954
0
3DFACE
8
1
62
168
10
-2.168383
20
0.574239
30
1.962319
11
-2.492204
21
-0.632341
31
1.338265
12
-2.070878
22
-0.631377
32
2.020697
13
-2.070878
23
-0.631377
33
2.020697
0
3DFACE
8
1
62
168
10
-2.742414
20
-1.833333
30
0.666667
11
-2.340796
21
-1.833333
31
1.353954
12
-2.492204
22
-0.632341
32
1.338265
13
-2.492204
23
-0.632341
33
1.338265
0
3DFACE
8
1
62
168
10
-2.070878
20
-0.631377
30
2.020697
11
-2.492204
21
-0.632341
31
1.338265
12
-2.340796
22
-1.833333
32
1.353954
13
-2.340796
23
-1.833333
33
1.353954
0
3DFACE
8
1
62
168
10
-2.742414
20
-1.833333
30
0.666667
11
-2.819129
21
-3.831985
31
0.808624
12
-2.482739
22
-3.763224
32
0.962285
13
-2.482739
23
-3.763224
33
0.962285
0
3DFACE
8
1
62
168
10
-2.895845
20
-5.830637
30
0.950582
11
-2.559455
21
-5.761876
31
1.104242
12
-2.819129
22
-3.831985
32
0.808624
13
-2.819129
23
-3.831985
33
0.808624
0
3DFACE
8
1
62
168
10
-2.223065
20
-5.693115
30
1.257903
11
-2.482739
21
-3.763224
31
0.962285
12
-2.559455
22
-5.761876
32
1.104242
13
-2.559455
23
-5.761876
33
1.104242
0
3DFACE
8
1
62
168
10
-2.819129
20
-3.831985
30
0.808624
11
-2.559455
21
-5.761876
31
1.104242
12
-2.482739
22
-3.763224
32
0.962285
13
-2.482739
23
-3.763224
33
0.962285
0
3DFACE
8
1
62
168
10
-2.742414
20
-1.833333
30
0.666667
11
-2.482739
21
-3.763224
31
0.962285
12
-2.340796
22
-1.833333
32
1.353954
13
-2.340796
23
-1.833333
33
1.353954
0
3DFACE
8
1
62
168
10
-2.223065
20
-5.693115
30
1.257903
11
-2.081122
21
-3.763224
31
1.649572
12
-2.482739
22
-3.763224
32
0.962285
13
-2.482739
23
-3.763224
33
0.962285
0
3DFACE
8
1
62
168
10
-1.939179
20
-1.833333
30
2.041241
11
-2.340796
21
-1.833333
31
1.353954
12
-2.081122
22
-3.763224
32
1.649572
13
-2.081122
23
-3.763224
33
1.649572
0
3DFACE
8
1
62
168
10
-2.482739
20
-3.763224
30
0.962285
11
-2.081122
21
-3.763224
31
1.649572
12
-2.340796
22
-1.833333
32
1.353954
13
-2.340796
23
-1.833333
33
1.353954
0
3DFACE
8
1
62
168
10
-2.895845
20
-5.830637
30
0.950582
11
-2.819129
21
-3.831985
31
0.808624
12
-2.413614
22
-5.067268
32
-0.283440
13
-2.413614
23
-5.067268
33
-0.283440
0
3DFACE
8
1
62
168
10
-2.742414
20
-1.833333
30
0.666667
11
-2.514060
21
-3.454761
31
-0.631239
12
-2.819129
22
-3.831985
32
0.808624
13
-2.819129
23
-3.831985
33
0.808624
0
3DFACE
8
1
62
168
10
-1.583333
20
-4.883545
30
-2.000000
11
-2.413614
21
-5.067268
31
-0.283440
12
-2.514060
22
-3.454761
32
-0.631239
13
-2.514060
23
-3.454761
33
-0.631239
0
3DFACE
8
1
62
168
10
-2.819129
20
-3.831985
30
0.808624
11
-2.514060
21
-3.454761
31
-0.631239
12
-2.413614
22
-5.067268
32
-0.283440
13
-2.413614
23
-5.067268
33
-0.283440
0
3DFACE
8
1
62
168
10
-1.583333
20
-4.883545
30
-2.000000
11
-1.611204
21
-5.844782
31
-0.579870
12
-2.413614
22
-5.067268
32
-0.283440
13
-2.413614
23
-5.067268
33
-0.283440
0
3DFACE
8
1
62
168
10
-2.018574
20
-6.646581
30
0.761948
11
-2.487432
21
-6.260419
31
0.827774
12
-1.611204
22
-5.844782
32
-0.579870
13
-1.611204
23
-5.844782
33
-0.579870
0
3DFACE
8
1
62
168
10
-2.895845
20
-5.830637
30
0.950582
11
-2.413614
21
-5.067268
31
-0.283440
12
-2.487432
22
-6.260419
32
0.827774
13
-2.487432
23
-6.260419
33
0.827774
0
3DFACE
8
1
62
168
10
-1.611204
20
-5.844782
30
-0.579870
11
-2.487432
21
-6.260419
31
0.827774
12
-2.413614
22
-5.067268
32
-0.283440
13
-2.413614
23
-5.067268
33
-0.283440
0
3DFACE
8
1
62
254
10
1.022598
20
5.873483
30
2.183540
11
1.186218
21
5.856412
31
1.971536
12
1.369931
22
6.655040
32
1.909331
13
1.369931
23
6.655040
33
1.909331
0
3DFACE
8
1
62
254
10
1.299250
20
5.835000
30
1.711344
11
1.463716
21
6.633859
31
1.639430
12
1.186218
22
5.856412
32
1.971536
13
1.186218
23
5.856412
33
1.971536
0
3DFACE
8
1
62
254
10
1.625555
20
7.430821
30
1.559018
11
1.369931
21
6.655040
31
1.909331
12
1.463716
22
6.633859
32
1.639430
13
1.463716
23
6.633859
33
1.639430
0
3DFACE
8
1
62
254
10
1.186218
20
5.856412
30
1.971536
11
1.463716
21
6.633859
31
1.639430
12
1.369931
22
6.655040
32
1.909331
13
1.369931
23
6.655040
33
1.909331
0
3DFACE
8
1
62
254
10
1.625555
20
7.430821
30
1.559018
11
1.270554
21
7.455138
31
1.859435
12
1.369931
22
6.655040
32
1.909331
13
1.369931
23
6.655040
33
1.909331
0
3DFACE
8
1
62
254
10
0.850435
20
7.466887
30
2.099195
11
0.956133
21
6.675690
31
2.168770
12
1.270554
22
7.455138
32
1.859435
13
1.270554
23
7.455138
33
1.859435
0
3DFACE
8
1
62
254
10
1.022598
20
5.873483
30
2.183540
11
1.369931
21
6.655040
31
1.909331
12
0.956133
22
6.675690
32
2.168770
13
0.956133
23
6.675690
33
2.168770
0
3DFACE
8
1
62
254
10
1.270554
20
7.455138
30
1.859435
11
0.956133
21
6.675690
31
2.168770
12
1.369931
22
6.655040
32
1.909331
13
1.369931
23
6.655040
33
1.909331
0
3DFACE
8
1
62
254
10
1.119586
20
8.883544
30
1.178511
11
0.862117
21
8.925202
31
1.347503
12
1.038734
22
8.214745
32
1.700779
13
1.038734
23
8.214745
33
1.700779
0
3DFACE
8
1
62
254
10
0.581270
20
8.934456
30
1.484086
11
0.754018
21
8.241793
31
1.860756
12
0.862117
22
8.925202
32
1.347503
13
0.862117
23
8.925202
33
1.347503
0
3DFACE
8
1
62
254
10
0.850435
20
7.466887
30
2.099195
11
1.038734
21
8.214745
31
1.700779
12
0.754018
22
8.241793
32
1.860756
13
0.754018
23
8.241793
33
1.860756
0
3DFACE
8
1
62
254
10
0.862117
20
8.925202
30
1.347503
11
0.754018
21
8.241793
31
1.860756
12
1.038734
22
8.214745
32
1.700779
13
1.038734
23
8.214745
33
1.700779
0
3DFACE
8
1
62
180
10
1.119586
20
8.883544
30
1.178511
11
1.038734
21
8.214745
31
1.700779
12
1.447478
22
8.194790
32
1.423372
13
1.447478
23
8.194790
33
1.423372
0
3DFACE
8
1
62
180
10
0.850435
20
7.466887
30
2.099195
11
1.270554
21
7.455138
31
1.859435
12
1.038734
22
8.214745
32
1.700779
13
1.038734
23
8.214745
33
1.700779
0
3DFACE
8
1
62
180
10
1.625555
20
7.430821
30
1.559018
11
1.447478
21
8.194790
31
1.423372
12
1.270554
22
7.455138
32
1.859435
13
1.270554
23
7.455138
33
1.859435
0
3DFACE
8
1
62
180
10
1.038734
20
8.214745
30
1.700779
11
1.270554
21
7.455138
31
1.859435
12
1.447478
22
8.194790
32
1.423372
13
1.447478
23
8.194790
33
1.423372
0
3DFACE
8
1
62
31
10
0.000000
20
8.883544
30
1.666667
11
-0.000162
21
8.254720
31
3.298476
12
0.302343
22
8.231063
32
2.025618
13
0.302343
23
8.231063
33
2.025618
0
3DFACE
8
1
62
31
10
-0.000111
20
7.420113
30
4.548749
11
0.283354
21
7.390456
31
3.217922
12
-0.000162
22
8.254720
32
3.298476
13
-0.000162
23
8.254720
33
3.298476
0
3DFACE
8
1
62
31
10
0.850435
20
7.466887
30
2.099195
11
0.302343
21
8.231063
31
2.025618
12
0.283354
22
7.390456
32
3.217922
13
0.283354
23
7.390456
33
3.217922
0
3DFACE
8
1
62
31
10
-0.000162
20
8.254720
30
3.298476
11
0.283354
21
7.390456
31
3.217922
12
0.302343
22
8.231063
32
2.025618
13
0.302343
23
8.231063
33
2.025618
0
3DFACE
8
1
62
254
10
0.000000
20
8.883544
30
1.666667
11
0.302343
21
8.231063
31
2.025618
12
0.293899
22
8.923865
32
1.590357
13
0.293899
23
8.923865
33
1.590357
0
3DFACE
8
1
62
254
10
0.850435
20
7.466887
30
2.099195
11
0.754018
21
8.241793
31
1.860756
12
0.302343
22
8.231063
32
2.025618
13
0.302343
23
8.231063
33
2.025618
0
3DFACE
8
1
62
254
10
0.581270
20
8.934456
30
1.484086
11
0.293899
21
8.923865
31
1.590357
12
0.754018
22
8.241793
32
1.860756
13
0.754018
23
8.241793
33
1.860756
0
3DFACE
8
1
62
254
10
0.302343
20
8.231063
30
2.025618
11
0.754018
21
8.241793
31
1.860756
12
0.293899
22
8.923865
32
1.590357
13
0.293899
23
8.923865
33
1.590357
0
3DFACE
8
1
62
31
10
0.850435
20
7.466887
30
2.099195
11
0.283354
21
7.390456
31
3.217922
12
0.347381
22
6.680153
32
2.274735
13
0.347381
23
6.680153
33
2.274735
0
3DFACE
8
1
62
31
10
-0.000111
20
7.420113
30
4.548749
11
0.000062
21
6.635300
31
3.472874
12
0.283354
22
7.390456
32
3.217922
13
0.283354
23
7.390456
33
3.217922
0
3DFACE
8
1
62
31
10
0.000000
20
5.833333
30
2.220598
11
0.347381
21
6.680153
31
2.274735
12
0.000062
22
6.635300
32
3.472874
13
0.000062
23
6.635300
33
3.472874
0
3DFACE
8
1
62
31
10
0.283354
20
7.390456
30
3.217922
11
0.000062
21
6.635300
31
3.472874
12
0.347381
22
6.680153
32
2.274735
13
0.347381
23
6.680153
33
2.274735
0
3DFACE
8
1
62
254
10
0.000000
20
5.833333
30
2.220598
11
0.530193
21
5.857650
31
2.269355
12
0.347381
22
6.680153
32
2.274735
13
0.347381
23
6.680153
33
2.274735
0
3DFACE
8
1
62
254
10
1.022598
20
5.873483
30
2.183540
11
0.956133
21
6.675690
31
2.168770
12
0.530193
22
5.857650
32
2.269355
13
0.530193
23
5.857650
33
2.269355
0
3DFACE
8
1
62
254
10
0.850435
20
7.466887
30
2.099195
11
0.347381
21
6.680153
31
2.274735
12
0.956133
22
6.675690
32
2.168770
13
0.956133
23
6.675690
33
2.168770
0
3DFACE
8
1
62
254
10
0.530193
20
5.857650
30
2.269355
11
0.956133
21
6.675690
31
2.168770
12
0.347381
22
6.680153
32
2.274735
13
0.347381
23
6.680153
33
2.274735
0
3DFACE
8
1
62
31
10
0.000000
20
5.833333
30
2.220598
11
0.000062
21
6.635300
31
3.472874
12
-0.352224
22
6.674623
32
2.268701
13
-0.352224
23
6.674623
33
2.268701
0
3DFACE
8
1
62
31
10
-0.000111
20
7.420113
30
4.548749
11
-0.290775
21
7.400872
31
3.228421
12
0.000062
22
6.635300
32
3.472874
13
0.000062
23
6.635300
33
3.472874
0
3DFACE
8
1
62
31
10
-0.850858
20
7.462658
30
2.096458
11
-0.352224
21
6.674623
31
2.268701
12
-0.290775
22
7.400872
32
3.228421
13
-0.290775
23
7.400872
33
3.228421
0
3DFACE
8
1
62
31
10
0.000062
20
6.635300
30
3.472874
11
-0.290775
21
7.400872
31
3.228421
12
-0.352224
22
6.674623
32
2.268701
13
-0.352224
23
6.674623
33
2.268701
0
3DFACE
8
1
62
254
10
0.000000
20
5.833333
30
2.220598
11
-0.352224
21
6.674623
31
2.268701
12
-0.529334
22
5.861482
32
2.267938
13
-0.529334
23
5.861482
33
2.267938
0
3DFACE
8
1
62
254
10
-0.850858
20
7.462658
30
2.096458
11
-0.946365
21
6.670113
31
2.150198
12
-0.352224
22
6.674623
32
2.268701
13
-0.352224
23
6.674623
33
2.268701
0
3DFACE
8
1
62
254
10
-1.023068
20
5.872637
30
2.184375
11
-0.529334
21
5.861482
31
2.267938
12
-0.946365
22
6.670113
32
2.150198
13
-0.946365
23
6.670113
33
2.150198
0
3DFACE
8
1
62
254
10
-0.352224
20
6.674623
30
2.268701
11
-0.946365
21
6.670113
31
2.150198
12
-0.529334
22
5.861482
32
2.267938
13
-0.529334
23
5.861482
33
2.267938
0
3DFACE
8
1
62
254
10
0.000000
20
8.883544
30
1.666667
11
-0.294338
21
8.923694
31
1.591005
12
-0.310761
22
8.232240
32
2.030695
13
-0.310761
23
8.232240
33
2.030695
0
3DFACE
8
1
62
254
10
-0.582119
20
8.934070
30
1.485269
11
-0.760041
21
8.240541
31
1.863307
12
-0.294338
22
8.923694
32
1.591005
13
-0.294338
23
8.923694
33
1.591005
0
3DFACE
8
1
62
254
10
-0.850858
20
7.462658
30
2.096458
11
-0.310761
21
8.232240
31
2.030695
12
-0.760041
22
8.240541
32
1.863307
13
-0.760041
23
8.240541
33
1.863307
0
3DFACE
8
1
62
254
10
-0.294338
20
8.923694
30
1.591005
11
-0.760041
21
8.240541
31
1.863307
12
-0.310761
22
8.232240
32
2.030695
13
-0.310761
23
8.232240
33
2.030695
0
3DFACE
8
1
62
31
10
0.000000
20
8.883544
30
1.666667
11
-0.310761
21
8.232240
31
2.030695
12
-0.000162
22
8.254720
32
3.298476
13
-0.000162
23
8.254720
33
3.298476
0
3DFACE
8
1
62
31
10
-0.850858
20
7.462658
30
2.096458
11
-0.290775
21
7.400872
31
3.228421
12
-0.310761
22
8.232240
32
2.030695
13
-0.310761
23
8.232240
33
2.030695
0
3DFACE
8
1
62
31
10
-0.000111
20
7.420113
30
4.548749
11
-0.000162
21
8.254720
31
3.298476
12
-0.290775
22
7.400872
32
3.228421
13
-0.290775
23
7.400872
33
3.228421
0
3DFACE
8
1
62
31
10
-0.310761
20
8.232240
30
2.030695
11
-0.290775
21
7.400872
31
3.228421
12
-0.000162
22
8.254720
32
3.298476
13
-0.000162
23
8.254720
33
3.298476
0
3DFACE
8
1
62
180
10
-1.119586
20
8.883544
30
1.178511
11
-1.441129
21
8.190270
31
1.418704
12
-1.041197
22
8.211837
32
1.699328
13
-1.041197
23
8.211837
33
1.699328
0
3DFACE
8
1
62
180
10
-1.621101
20
7.423498
30
1.554067
11
-1.263504
21
7.448916
31
1.849488
12
-1.441129
22
8.190270
32
1.418704
13
-1.441129
23
8.190270
33
1.418704
0
3DFACE
8
1
62
180
10
-0.850858
20
7.462658
30
2.096458
11
-1.041197
21
8.211837
31
1.699328
12
-1.263504
22
7.448916
32
1.849488
13
-1.263504
23
7.448916
33
1.849488
0
3DFACE
8
1
62
180
10
-1.441129
20
8.190270
30
1.418704
11
-1.263504
21
7.448916
31
1.849488
12
-1.041197
22
8.211837
32
1.699328
13
-1.041197
23
8.211837
33
1.699328
0
3DFACE
8
1
62
254
10
-1.119586
20
8.883544
30
1.178511
11
-1.041197
21
8.211837
31
1.699328
12
-0.862658
22
8.925070
32
1.348214
13
-0.862658
23
8.925070
33
1.348214
0
3DFACE
8
1
62
254
10
-0.850858
20
7.462658
30
2.096458
11
-0.760041
21
8.240541
31
1.863307
12
-1.041197
22
8.211837
32
1.699328
13
-1.041197
23
8.211837
33
1.699328
0
3DFACE
8
1
62
254
10
-0.582119
20
8.934070
30
1.485269
11
-0.862658
21
8.925070
31
1.348214
12
-0.760041
22
8.240541
32
1.863307
13
-0.760041
23
8.240541
33
1.863307
0
3DFACE
8
1
62
254
10
-1.041197
20
8.211837
30
1.699328
11
-0.760041
21
8.240541
31
1.863307
12
-0.862658
22
8.925070
32
1.348214
13
-0.862658
23
8.925070
33
1.348214
0
3DFACE
8
1
62
254
10
-1.299250
20
5.835000
30
1.711344
11
-1.181684
21
5.857693
31
1.969429
12
-1.099592
22
6.653281
32
1.933622
13
-1.099592
23
6.653281
33
1.933622
0
3DFACE
8
1
62
254
10
-1.023068
20
5.872637
30
2.184375
11
-0.946365
21
6.670113
31
2.150198
12
-1.181684
22
5.857693
32
1.969429
13
-1.181684
23
5.857693
33
1.969429
0
3DFACE
8
1
62
254
10
-0.850858
20
7.462658
30
2.096458
11
-1.099592
21
6.653281
31
1.933622
12
-0.946365
22
6.670113
32
2.150198
13
-0.946365
23
6.670113
33
2.150198
0
3DFACE
8
1
62
254
10
-1.181684
20
5.857693
30
1.969429
11
-0.946365
21
6.670113
31
2.150198
12
-1.099592
22
6.653281
32
1.933622
13
-1.099592
23
6.653281
33
1.933622
0
3DFACE
8
1
62
254
10
-1.299250
20
5.835000
30
1.711344
11
-1.099592
21
6.653281
31
1.933622
12
-1.465817
22
6.629880
32
1.635120
13
-1.465817
23
6.629880
33
1.635120
0
3DFACE
8
1
62
254
10
-0.850858
20
7.462658
30
2.096458
11
-1.263504
21
7.448916
31
1.849488
12
-1.099592
22
6.653281
32
1.933622
13
-1.099592
23
6.653281
33
1.933622
0
3DFACE
8
1
62
254
10
-1.621101
20
7.423498
30
1.554067
11
-1.465817
21
6.629880
31
1.635120
12
-1.263504
22
7.448916
32
1.849488
13
-1.263504
23
7.448916
33
1.849488
0
3DFACE
8
1
62
254
10
-1.099592
20
6.653281
30
1.933622
11
-1.263504
21
7.448916
31
1.849488
12
-1.465817
22
6.629880
32
1.635120
13
-1.465817
23
6.629880
33
1.635120
0
3DFACE
8
1
62
168
10
0.000000
20
10.000000
30
0.000000
11
0.622381
21
9.617537
31
0.664470
12
0.933782
22
9.660321
32
0.013680
13
0.933782
23
9.660321
33
0.013680
0
3DFACE
8
1
62
168
10
1.119586
20
8.883544
30
1.178511
11
1.435402
21
8.937802
31
0.617264
12
0.622381
22
9.617537
32
0.664470
13
0.622381
23
9.617537
33
0.664470
0
3DFACE
8
1
62
168
10
1.583333
20
8.883544
30
0.000000
11
0.933782
21
9.660321
31
0.013680
12
1.435402
22
8.937802
32
0.617264
13
1.435402
23
8.937802
33
0.617264
0
3DFACE
8
1
62
168
10
0.622381
20
9.617537
30
0.664470
11
1.435402
21
8.937802
31
0.617264
12
0.933782
22
9.660321
32
0.013680
13
0.933782
23
9.660321
33
0.013680
0
3DFACE
8
1
62
168
10
0.000000
20
10.000000
30
0.000000
11
0.000006
21
9.586197
31
0.901244
12
0.317670
22
9.623636
32
0.820322
13
0.317670
23
9.623636
33
0.820322
0
3DFACE
8
1
62
168
10
0.000000
20
8.883544
30
1.666667
11
0.293899
21
8.923865
31
1.590357
12
0.000006
22
9.586197
32
0.901244
13
0.000006
23
9.586197
33
0.901244
0
3DFACE
8
1
62
168
10
0.581270
20
8.934456
30
1.484086
11
0.317670
21
9.623636
31
0.820322
12
0.293899
22
8.923865
32
1.590357
13
0.293899
23
8.923865
33
1.590357
0
3DFACE
8
1
62
168
10
0.000006
20
9.586197
30
0.901244
11
0.293899
21
8.923865
31
1.590357
12
0.317670
22
9.623636
32
0.820322
13
0.317670
23
9.623636
33
0.820322
0
3DFACE
8
1
62
168
10
0.000000
20
10.000000
30
0.000000
11
0.317670
21
9.623636
31
0.820322
12
0.622381
22
9.617537
32
0.664470
13
0.622381
23
9.617537
33
0.664470
0
3DFACE
8
1
62
168
10
0.581270
20
8.934456
30
1.484086
11
0.862117
21
8.925202
31
1.347503
12
0.317670
22
9.623636
32
0.820322
13
0.317670
23
9.623636
33
0.820322
0
3DFACE
8
1
62
168
10
1.119586
20
8.883544
30
1.178511
11
0.622381
21
9.617537
31
0.664470
12
0.862117
22
8.925202
32
1.347503
13
0.862117
23
8.925202
33
1.347503
0
3DFACE
8
1
62
168
10
0.317670
20
9.623636
30
0.820322
11
0.862117
21
8.925202
31
1.347503
12
0.622381
22
9.617537
32
0.664470
13
0.622381
23
9.617537
33
0.664470
0
3DFACE
8
1
62
168
10
0.000000
20
10.000000
30
0.000000
11
-0.622902
21
9.617948
31
0.664738
12
-0.318231
22
9.623781
32
0.821204
13
-0.318231
23
9.623781
33
0.821204
0
3DFACE
8
1
62
168
10
-1.119586
20
8.883544
30
1.178511
11
-0.862658
21
8.925070
31
1.348214
12
-0.622902
22
9.617948
32
0.664738
13
-0.622902
23
9.617948
33
0.664738
0
3DFACE
8
1
62
168
10
-0.582119
20
8.934070
30
1.485269
11
-0.318231
21
9.623781
31
0.821204
12
-0.862658
22
8.925070
32
1.348214
13
-0.862658
23
8.925070
33
1.348214
0
3DFACE
8
1
62
168
10
-0.622902
20
9.617948
30
0.664738
11
-0.862658
21
8.925070
31
1.348214
12
-0.318231
22
9.623781
32
0.821204
13
-0.318231
23
9.623781
33
0.821204
0
3DFACE
8
1
62
168
10
0.000000
20
10.000000
30
0.000000
11
-0.318231
21
9.623781
31
0.821204
12
0.000006
22
9.586197
32
0.901244
13
0.000006
23
9.586197
33
0.901244
0
3DFACE
8
1
62
168
10
-0.582119
20
8.934070
30
1.485269
11
-0.294338
21
8.923694
31
1.591005
12
-0.318231
22
9.623781
32
0.821204
13
-0.318231
23
9.623781
33
0.821204
0
3DFACE
8
1
62
168
10
0.000000
20
8.883544
30
1.666667
11
0.000006
21
9.586197
31
0.901244
12
-0.294338
22
8.923694
32
1.591005
13
-0.294338
23
8.923694
33
1.591005
0
3DFACE
8
1
62
168
10
-0.318231
20
9.623781
30
0.821204
11
-0.294338
21
8.923694
31
1.591005
12
0.000006
22
9.586197
32
0.901244
13
0.000006
23
9.586197
33
0.901244
0
3DFACE
8
1
62
168
10
0.000000
20
10.000000
30
0.000000
11
-0.933965
21
9.660412
31
0.013808
12
-0.622902
22
9.617948
32
0.664738
13
-0.622902
23
9.617948
33
0.664738
0
3DFACE
8
1
62
168
10
-1.583333
20
8.883544
30
0.000000
11
-1.435305
21
8.937484
31
0.617229
12
-0.933965
22
9.660412
32
0.013808
13
-0.933965
23
9.660412
33
0.013808
0
3DFACE
8
1
62
168
10
-1.119586
20
8.883544
30
1.178511
11
-0.622902
21
9.617948
31
0.664738
12
-1.435305
22
8.937484
32
0.617229
13
-1.435305
23
8.937484
33
0.617229
0
3DFACE
8
1
62
168
10
-0.933965
20
9.660412
30
0.013808
11
-1.435305
21
8.937484
31
0.617229
12
-0.622902
22
9.617948
32
0.664738
13
-0.622902
23
9.617948
33
0.664738
0
3DFACE
8
1
62
168
10
0.000000
20
10.000000
30
0.000000
11
-0.662446
21
9.682916
31
-0.681682
12
-0.933965
22
9.660412
32
0.013808
13
-0.933965
23
9.660412
33
0.013808
0
3DFACE
8
1
62
168
10
-1.119586
20
8.883544
30
-1.178511
11
-1.441952
21
8.934929
31
-0.632410
12
-0.662446
22
9.682916
32
-0.681682
13
-0.662446
23
9.682916
33
-0.681682
0
3DFACE
8
1
62
168
10
-1.583333
20
8.883544
30
0.000000
11
-0.933965
21
9.660412
31
0.013808
12
-1.441952
22
8.934929
32
-0.632410
13
-1.441952
23
8.934929
33
-0.632410
0
3DFACE
8
1
62
168
10
-0.662446
20
9.682916
30
-0.681682
11
-1.441952
21
8.934929
31
-0.632410
12
-0.933965
22
9.660412
32
0.013808
13
-0.933965
23
9.660412
33
0.013808
0
3DFACE
8
1
62
168
10
0.000000
20
10.000000
30
0.000000
11
0.000002
21
9.682722
31
-0.948506
12
-0.662446
22
9.682916
32
-0.681682
13
-0.662446
23
9.682916
33
-0.681682
0
3DFACE
8
1
62
168
10
0.000000
20
8.883544
30
-1.666667
11
-0.588671
21
8.931641
31
-1.496828
12
0.000002
22
9.682722
32
-0.948506
13
0.000002
23
9.682722
33
-0.948506
0
3DFACE
8
1
62
168
10
-1.119586
20
8.883544
30
-1.178511
11
-0.662446
21
9.682916
31
-0.681682
12
-0.588671
22
8.931641
32
-1.496828
13
-0.588671
23
8.931641
33
-1.496828
0
3DFACE
8
1
62
168
10
0.000002
20
9.682722
30
-0.948506
11
-0.588671
21
8.931641
31
-1.496828
12
-0.662446
22
9.682916
32
-0.681682
13
-0.662446
23
9.682916
33
-0.681682
0
3DFACE
8
1
62
168
10
0.000000
20
10.000000
30
0.000000
11
0.662447
21
9.682913
31
-0.681681
12
0.000002
22
9.682722
32
-0.948506
13
0.000002
23
9.682722
33
-0.948506
0
3DFACE
8
1
62
168
10
1.119586
20
8.883544
30
-1.178511
11
0.588671
21
8.931641
31
-1.496828
12
0.662447
22
9.682913
32
-0.681681
13
0.662447
23
9.682913
33
-0.681681
0
3DFACE
8
1
62
168
10
0.000000
20
8.883544
30
-1.666667
11
0.000002
21
9.682722
31
-0.948506
12
0.588671
22
8.931641
32
-1.496828
13
0.588671
23
8.931641
33
-1.496828
0
3DFACE
8
1
62
168
10
0.662447
20
9.682913
30
-0.681681
11
0.588671
21
8.931641
31
-1.496828
12
0.000002
22
9.682722
32
-0.948506
13
0.000002
23
9.682722
33
-0.948506
0
3DFACE
8
1
62
168
10
0.000000
20
10.000000
30
0.000000
11
0.933782
21
9.660321
31
0.013680
12
0.662447
22
9.682913
32
-0.681681
13
0.662447
23
9.682913
33
-0.681681
0
3DFACE
8
1
62
168
10
1.583333
20
8.883544
30
0.000000
11
1.441785
21
8.934888
31
-0.632399
12
0.933782
22
9.660321
32
0.013680
13
0.933782
23
9.660321
33
0.013680
0
3DFACE
8
1
62
168
10
1.119586
20
8.883544
30
-1.178511
11
0.662447
21
9.682913
31
-0.681681
12
1.441785
22
8.934888
32
-0.632399
13
1.441785
23
8.934888
33
-0.632399
0
3DFACE
8
1
62
168
10
0.933782
20
9.660321
30
0.013680
11
1.441785
21
8.934888
31
-0.632399
12
0.662447
22
9.682913
32
-0.681681
13
0.662447
23
9.682913
33
-0.681681
0
3DFACE
8
1
62
168
10
1.625555
20
7.430821
30
1.559018
11
1.463716
21
6.633859
31
1.639430
12
1.755205
22
6.629200
32
1.137946
13
1.755205
23
6.629200
33
1.137946
0
3DFACE
8
1
62
168
10
1.299250
20
5.835000
30
1.711344
11
1.612126
21
5.844166
31
1.204237
12
1.463716
22
6.633859
32
1.639430
13
1.463716
23
6.633859
33
1.639430
0
3DFACE
8
1
62
168
10
1.837417
20
5.835000
30
0.666667
11
1.755205
21
6.629200
31
1.137946
12
1.612126
22
5.844166
32
1.204237
13
1.612126
23
5.844166
33
1.204237
0
3DFACE
8
1
62
168
10
1.463716
20
6.633859
30
1.639430
11
1.612126
21
5.844166
31
1.204237
12
1.755205
22
6.629200
32
1.137946
13
1.755205
23
6.629200
33
1.137946
0
3DFACE
8
1
62
168
10
1.625555
20
7.430821
30
1.559018
11
1.755205
21
6.629200
31
1.137946
12
1.752142
22
8.202899
32
0.820794
13
1.752142
23
8.202899
33
0.820794
0
3DFACE
8
1
62
168
10
1.837417
20
5.835000
30
0.666667
11
1.809468
21
7.388028
31
0.327609
12
1.755205
22
6.629200
32
1.137946
13
1.755205
23
6.629200
33
1.137946
0
3DFACE
8
1
62
168
10
1.583333
20
8.883544
30
0.000000
11
1.752142
21
8.202899
31
0.820794
12
1.809468
22
7.388028
32
0.327609
13
1.809468
23
7.388028
33
0.327609
0
3DFACE
8
1
62
168
10
1.755205
20
6.629200
30
1.137946
11
1.809468
21
7.388028
31
0.327609
12
1.752142
22
8.202899
32
0.820794
13
1.752142
23
8.202899
33
0.820794
0
3DFACE
8
1
62
168
10
1.583333
20
8.883544
30
0.000000
11
1.435402
21
8.937802
31
0.617264
12
1.752142
22
8.202899
32
0.820794
13
1.752142
23
8.202899
33
0.820794
0
3DFACE
8
1
62
168
10
1.119586
20
8.883544
30
1.178511
11
1.447478
21
8.194790
31
1.423372
12
1.435402
22
8.937802
32
0.617264
13
1.435402
23
8.937802
33
0.617264
0
3DFACE
8
1
62
168
10
1.625555
20
7.430821
30
1.559018
11
1.752142
21
8.202899
31
0.820794
12
1.447478
22
8.194790
32
1.423372
13
1.447478
23
8.194790
33
1.423372
0
3DFACE
8
1
62
168
10
1.435402
20
8.937802
30
0.617264
11
1.447478
21
8.194790
31
1.423372
12
1.752142
22
8.202899
32
0.820794
13
1.752142
23
8.202899
33
0.820794
0
3DFACE
8
1
62
168
10
-1.837417
20
5.835000
30
0.666667
11
-1.622943
21
5.845876
31
1.210827
12
-1.757151
22
6.626579
32
1.137366
13
-1.757151
23
6.626579
33
1.137366
0
3DFACE
8
1
62
168
10
-1.299250
20
5.835000
30
1.711344
11
-1.465817
21
6.629880
31
1.635120
12
-1.622943
22
5.845876
32
1.210827
13
-1.622943
23
5.845876
33
1.210827
0
3DFACE
8
1
62
168
10
-1.621101
20
7.423498
30
1.554067
11
-1.757151
21
6.626579
31
1.137366
12
-1.465817
22
6.629880
32
1.635120
13
-1.465817
23
6.629880
33
1.635120
0
3DFACE
8
1
62
168
10
-1.622943
20
5.845876
30
1.210827
11
-1.465817
21
6.629880
31
1.635120
12
-1.757151
22
6.626579
32
1.137366
13
-1.757151
23
6.626579
33
1.137366
0
3DFACE
8
1
62
168
10
-1.621101
20
7.423498
30
1.554067
11
-1.441129
21
8.190270
31
1.418704
12
-1.745580
22
8.199360
32
0.817036
13
-1.745580
23
8.199360
33
0.817036
0
3DFACE
8
1
62
168
10
-1.119586
20
8.883544
30
1.178511
11
-1.435305
21
8.937484
31
0.617229
12
-1.441129
22
8.190270
32
1.418704
13
-1.441129
23
8.190270
33
1.418704
0
3DFACE
8
1
62
168
10
-1.583333
20
8.883544
30
0.000000
11
-1.745580
21
8.199360
31
0.817036
12
-1.435305
22
8.937484
32
0.617229
13
-1.435305
23
8.937484
33
0.617229
0
3DFACE
8
1
62
168
10
-1.441129
20
8.190270
30
1.418704
11
-1.435305
21
8.937484
31
0.617229
12
-1.745580
22
8.199360
32
0.817036
13
-1.745580
23
8.199360
33
0.817036
0
3DFACE
8
1
62
168
10
-1.621101
20
7.423498
30
1.554067
11
-1.745580
21
8.199360
31
0.817036
12
-1.757151
22
6.626579
32
1.137366
13
-1.757151
23
6.626579
33
1.137366
0
3DFACE
8
1
62
168
10
-1.583333
20
8.883544
30
0.000000
11
-1.808922
21
7.387849
31
0.327667
12
-1.745580
22
8.199360
32
0.817036
13
-1.745580
23
8.199360
33
0.817036
0
3DFACE
8
1
62
168
10
-1.837417
20
5.835000
30
0.666667
11
-1.757151
21
6.626579
31
1.137366
12
-1.808922
22
7.387849
32
0.327667
13
-1.808922
23
7.387849
33
0.327667
0
3DFACE
8
1
62
168
10
-1.745580
20
8.199360
30
0.817036
11
-1.808922
21
7.387849
31
0.327667
12
-1.757151
22
6.626579
32
1.137366
13
-1.757151
23
6.626579
33
1.137366
0
3DFACE
8
1
62
168
10
-1.299250
20
5.835000
30
-1.391344
11
-1.769745
21
5.884662
31
-0.414150
12
-1.613763
22
7.398039
32
-0.717063
13
-1.613763
23
7.398039
33
-0.717063
0
3DFACE
8
1
62
168
10
-1.837417
20
5.835000
30
0.666667
11
-1.808922
21
7.387849
31
0.327667
12
-1.769745
22
5.884662
32
-0.414150
13
-1.769745
23
5.884662
33
-0.414150
0
3DFACE
8
1
62
168
10
-1.583333
20
8.883544
30
0.000000
11
-1.613763
21
7.398039
31
-0.717063
12
-1.808922
22
7.387849
32
0.327667
13
-1.808922
23
7.387849
33
0.327667
0
3DFACE
8
1
62
168
10
-1.769745
20
5.884662
30
-0.414150
11
-1.808922
21
7.387849
31
0.327667
12
-1.613763
22
7.398039
32
-0.717063
13
-1.613763
23
7.398039
33
-0.717063
0
3DFACE
8
1
62
168
10
-1.583333
20
8.883544
30
0.000000
11
-1.441952
21
8.934929
31
-0.632410
12
-1.613763
22
7.398039
32
-0.717063
13
-1.613763
23
7.398039
33
-0.717063
0
3DFACE
8
1
62
168
10
-1.119586
20
8.883544
30
-1.178511
11
-1.254049
21
7.387042
31
-1.350142
12
-1.441952
22
8.934929
32
-0.632410
13
-1.441952
23
8.934929
33
-0.632410
0
3DFACE
8
1
62
168
10
-1.299250
20
5.835000
30
-1.391344
11
-1.613763
21
7.398039
31
-0.717063
12
-1.254049
22
7.387042
32
-1.350142
13
-1.254049
23
7.387042
33
-1.350142
0
3DFACE
8
1
62
168
10
-1.441952
20
8.934929
30
-0.632410
11
-1.254049
21
7.387042
31
-1.350142
12
-1.613763
22
7.398039
32
-0.717063
13
-1.613763
23
7.398039
33
-0.717063
0
3DFACE
8
1
62
168
10
0.000000
20
5.833333
30
-2.033931
11
-0.713724
21
5.868077
31
-1.847540
12
-0.661412
22
7.412739
32
-1.787515
13
-0.661412
23
7.412739
33
-1.787515
0
3DFACE
8
1
62
168
10
-1.299250
20
5.835000
30
-1.391344
11
-1.254049
21
7.387042
31
-1.350142
12
-0.713724
22
5.868077
32
-1.847540
13
-0.713724
23
5.868077
33
-1.847540
0
3DFACE
8
1
62
168
10
-1.119586
20
8.883544
30
-1.178511
11
-0.661412
21
7.412739
31
-1.787515
12
-1.254049
22
7.387042
32
-1.350142
13
-1.254049
23
7.387042
33
-1.350142
0
3DFACE
8
1
62
168
10
-0.713724
20
5.868077
30
-1.847540
11
-1.254049
21
7.387042
31
-1.350142
12
-0.661412
22
7.412739
32
-1.787515
13
-0.661412
23
7.412739
33
-1.787515
0
3DFACE
8
1
62
168
10
-1.119586
20
8.883544
30
-1.178511
11
-0.588671
21
8.931641
31
-1.496828
12
-0.661412
22
7.412739
32
-1.787515
13
-0.661412
23
7.412739
33
-1.787515
0
3DFACE
8
1
62
168
10
0.000000
20
8.883544
30
-1.666667
11
0.000000
21
7.412020
31
-1.989107
12
-0.588671
22
8.931641
32
-1.496828
13
-0.588671
23
8.931641
33
-1.496828
0
3DFACE
8
1
62
168
10
0.000000
20
5.833333
30
-2.033931
11
-0.661412
21
7.412739
31
-1.787515
12
0.000000
22
7.412020
32
-1.989107
13
0.000000
23
7.412020
33
-1.989107
0
3DFACE
8
1
62
168
10
-0.588671
20
8.931641
30
-1.496828
11
0.000000
21
7.412020
31
-1.989107
12
-0.661412
22
7.412739
32
-1.787515
13
-0.661412
23
7.412739
33
-1.787515
0
3DFACE
8
1
62
168
10
0.000000
20
5.833333
30
-2.033931
11
0.000000
21
7.412020
31
-1.989107
12
0.661412
22
7.412739
32
-1.787515
13
0.661412
23
7.412739
33
-1.787515
0
3DFACE
8
1
62
168
10
0.000000
20
8.883544
30
-1.666667
11
0.588671
21
8.931641
31
-1.496828
12
0.000000
22
7.412020
32
-1.989107
13
0.000000
23
7.412020
33
-1.989107
0
3DFACE
8
1
62
168
10
1.119586
20
8.883544
30
-1.178511
11
0.661412
21
7.412739
31
-1.787515
12
0.588671
22
8.931641
32
-1.496828
13
0.588671
23
8.931641
33
-1.496828
0
3DFACE
8
1
62
168
10
0.000000
20
7.412020
30
-1.989107
11
0.588671
21
8.931641
31
-1.496828
12
0.661412
22
7.412739
32
-1.787515
13
0.661412
23
7.412739
33
-1.787515
0
3DFACE
8
1
62
168
10
0.000000
20
5.833333
30
-2.033931
11
0.661412
21
7.412739
31
-1.787515
12
0.713724
22
5.868077
32
-1.847540
13
0.713724
23
5.868077
33
-1.847540
0
3DFACE
8
1
62
168
10
1.119586
20
8.883544
30
-1.178511
11
1.254049
21
7.387042
31
-1.350142
12
0.661412
22
7.412739
32
-1.787515
13
0.661412
23
7.412739
33
-1.787515
0
3DFACE
8
1
62
168
10
1.299250
20
5.835000
30
-1.391344
11
0.713724
21
5.868077
31
-1.847540
12
1.254049
22
7.387042
32
-1.350142
13
1.254049
23
7.387042
33
-1.350142
0
3DFACE
8
1
62
168
10
0.661412
20
7.412739
30
-1.787515
11
1.254049
21
7.387042
31
-1.350142
12
0.713724
22
5.868077
32
-1.847540
13
0.713724
23
5.868077
33
-1.847540
0
3DFACE
8
1
62
168
10
1.299250
20
5.835000
30
-1.391344
11
1.254049
21
7.387042
31
-1.350142
12
1.613798
22
7.398182
32
-0.717281
13
1.613798
23
7.398182
33
-0.717281
0
3DFACE
8
1
62
168
10
1.119586
20
8.883544
30
-1.178511
11
1.441785
21
8.934888
31
-0.632399
12
1.254049
22
7.387042
32
-1.350142
13
1.254049
23
7.387042
33
-1.350142
0
3DFACE
8
1
62
168
10
1.583333
20
8.883544
30
0.000000
11
1.613798
21
7.398182
31
-0.717281
12
1.441785
22
8.934888
32
-0.632399
13
1.441785
23
8.934888
33
-0.632399
0
3DFACE
8
1
62
168
10
1.254049
20
7.387042
30
-1.350142
11
1.441785
21
8.934888
31
-0.632399
12
1.613798
22
7.398182
32
-0.717281
13
1.613798
23
7.398182
33
-0.717281
0
3DFACE
8
1
62
168
10
1.299250
20
5.835000
30
-1.391344
11
1.613798
21
7.398182
31
-0.717281
12
1.769571
22
5.884536
32
-0.414188
13
1.769571
23
5.884536
33
-0.414188
0
3DFACE
8
1
62
168
10
1.583333
20
8.883544
30
0.000000
11
1.809468
21
7.388028
31
0.327609
12
1.613798
22
7.398182
32
-0.717281
13
1.613798
23
7.398182
33
-0.717281
0
3DFACE
8
1
62
168
10
1.837417
20
5.835000
30
0.666667
11
1.769571
21
5.884536
31
-0.414188
12
1.809468
22
7.388028
32
0.327609
13
1.809468
23
7.388028
33
0.327609
0
3DFACE
8
1
62
168
10
1.613798
20
7.398182
30
-0.717281
11
1.809468
21
7.388028
31
0.327609
12
1.769571
22
5.884536
32
-0.414188
13
1.769571
23
5.884536
33
-0.414188
0
3DFACE
8
1
62
168
10
2.239172
20
3.000000
30
2.023689
11
2.702919
21
3.000000
31
1.178511
12
2.083221
22
4.441751
32
1.402607
13
2.083221
23
4.441751
33
1.402607
0
3DFACE
8
1
62
168
10
3.166667
20
3.000000
30
0.333333
11
2.500601
21
4.419107
31
0.485162
12
2.702919
22
3.000000
32
1.178511
13
2.702919
23
3.000000
33
1.178511
0
3DFACE
8
1
62
168
10
1.837417
20
5.835000
30
0.666667
11
2.083221
21
4.441751
31
1.402607
12
2.500601
22
4.419107
32
0.485162
13
2.500601
23
4.419107
33
0.485162
0
3DFACE
8
1
62
168
10
2.702919
20
3.000000
30
1.178511
11
2.500601
21
4.419107
31
0.485162
12
2.083221
22
4.441751
32
1.402607
13
2.083221
23
4.441751
33
1.402607
0
3DFACE
8
1
62
168
10
1.837417
20
5.835000
30
0.666667
11
1.612126
21
5.844166
31
1.204237
12
2.083221
22
4.441751
32
1.402607
13
2.083221
23
4.441751
33
1.402607
0
3DFACE
8
1
62
168
10
1.299250
20
5.835000
30
1.711344
11
1.713165
21
4.406116
31
1.847579
12
1.612126
22
5.844166
32
1.204237
13
1.612126
23
5.844166
33
1.204237
0
3DFACE
8
1
62
168
10
2.239172
20
3.000000
30
2.023689
11
2.083221
21
4.441751
31
1.402607
12
1.713165
22
4.406116
32
1.847579
13
1.713165
23
4.406116
33
1.847579
0
3DFACE
8
1
62
168
10
1.612126
20
5.844166
30
1.204237
11
1.713165
21
4.406116
31
1.847579
12
2.083221
22
4.441751
32
1.402607
13
2.083221
23
4.441751
33
1.402607
0
3DFACE
8
1
62
254
10
0.000000
20
5.833333
30
2.220598
11
0.000378
21
3.749905
31
2.771959
12
1.084310
22
4.388144
32
2.189326
13
1.084310
23
4.388144
33
2.189326
0
3DFACE
8
1
62
254
10
0.000000
20
1.666667
30
3.333333
11
1.202313
21
2.370802
31
2.913374
12
0.000378
22
3.749905
32
2.771959
13
0.000378
23
3.749905
33
2.771959
0
3DFACE
8
1
62
254
10
2.239172
20
3.000000
30
2.023689
11
1.084310
21
4.388144
31
2.189326
12
1.202313
22
2.370802
32
2.913374
13
1.202313
23
2.370802
33
2.913374
0
3DFACE
8
1
62
254
10
0.000378
20
3.749905
30
2.771959
11
1.202313
21
2.370802
31
2.913374
12
1.084310
22
4.388144
32
2.189326
13
1.084310
23
4.388144
33
2.189326
0
3DFACE
8
1
62
254
10
2.239172
20
3.000000
30
2.023689
11
1.713165
21
4.406116
31
1.847579
12
1.615934
22
4.433737
32
2.076508
13
1.615934
23
4.433737
33
2.076508
0
3DFACE
8
1
62
254
10
1.299250
20
5.835000
30
1.711344
11
1.186218
21
5.856412
31
1.971536
12
1.713165
22
4.406116
32
1.847579
13
1.713165
23
4.406116
33
1.847579
0
3DFACE
8
1
62
254
10
1.022598
20
5.873483
30
2.183540
11
1.615934
21
4.433737
31
2.076508
12
1.186218
22
5.856412
32
1.971536
13
1.186218
23
5.856412
33
1.971536
0
3DFACE
8
1
62
254
10
1.713165
20
4.406116
30
1.847579
11
1.186218
21
5.856412
31
1.971536
12
1.615934
22
4.433737
32
2.076508
13
1.615934
23
4.433737
33
2.076508
0
3DFACE
8
1
62
254
10
2.239172
20
3.000000
30
2.023689
11
1.615934
21
4.433737
31
2.076508
12
1.084310
22
4.388144
32
2.189326
13
1.084310
23
4.388144
33
2.189326
0
3DFACE
8
1
62
254
10
1.022598
20
5.873483
30
2.183540
11
0.530193
21
5.857650
31
2.269355
12
1.615934
22
4.433737
32
2.076508
13
1.615934
23
4.433737
33
2.076508
0
3DFACE
8
1
62
254
10
0.000000
20
5.833333
30
2.220598
11
1.084310
21
4.388144
31
2.189326
12
0.530193
22
5.857650
32
2.269355
13
0.530193
23
5.857650
33
2.269355
0
3DFACE
8
1
62
254
10
1.615934
20
4.433737
30
2.076508
11
0.530193
21
5.857650
31
2.269355
12
1.084310
22
4.388144
32
2.189326
13
1.084310
23
4.388144
33
2.189326
0
3DFACE
8
1
62
254
10
-2.239172
20
3.000000
30
2.023689
11
-1.202178
21
2.371201
31
2.914363
12
-1.083643
22
4.387888
32
2.188927
13
-1.083643
23
4.387888
33
2.188927
0
3DFACE
8
1
62
254
10
0.000000
20
1.666667
30
3.333333
11
0.000378
21
3.749905
31
2.771959
12
-1.202178
22
2.371201
32
2.914363
13
-1.202178
23
2.371201
33
2.914363
0
3DFACE
8
1
62
254
10
0.000000
20
5.833333
30
2.220598
11
-1.083643
21
4.387888
31
2.188927
12
0.000378
22
3.749905
32
2.771959
13
0.000378
23
3.749905
33
2.771959
0
3DFACE
8
1
62
254
10
-1.202178
20
2.371201
30
2.914363
11
0.000378
21
3.749905
31
2.771959
12
-1.083643
22
4.387888
32
2.188927
13
-1.083643
23
4.387888
33
2.188927
0
3DFACE
8
1
62
254
10
-2.239172
20
3.000000
30
2.023689
11
-1.083643
21
4.387888
31
2.188927
12
-1.628186
22
4.435614
32
2.097424
13
-1.628186
23
4.435614
33
2.097424
0
3DFACE
8
1
62
254
10
0.000000
20
5.833333
30
2.220598
11
-0.529334
21
5.861482
31
2.267938
12
-1.083643
22
4.387888
32
2.188927
13
-1.083643
23
4.387888
33
2.188927
0
3DFACE
8
1
62
254
10
-1.023068
20
5.872637
30
2.184375
11
-1.628186
21
4.435614
31
2.097424
12
-0.529334
22
5.861482
32
2.267938
13
-0.529334
23
5.861482
33
2.267938
0
3DFACE
8
1
62
254
10
-1.083643
20
4.387888
30
2.188927
11
-0.529334
21
5.861482
31
2.267938
12
-1.628186
22
4.435614
32
2.097424
13
-1.628186
23
4.435614
33
2.097424
0
3DFACE
8
1
62
254
10
-1.023068
20
5.872637
30
2.184375
11
-1.181684
21
5.857693
31
1.969429
12
-1.628186
22
4.435614
32
2.097424
13
-1.628186
23
4.435614
33
2.097424
0
3DFACE
8
1
62
254
10
-1.299250
20
5.835000
30
1.711344
11
-1.726465
21
4.407849
31
1.847211
12
-1.181684
22
5.857693
32
1.969429
13
-1.181684
23
5.857693
33
1.969429
0
3DFACE
8
1
62
254
10
-2.239172
20
3.000000
30
2.023689
11
-1.628186
21
4.435614
31
2.097424
12
-1.726465
22
4.407849
32
1.847211
13
-1.726465
23
4.407849
33
1.847211
0
3DFACE
8
1
62
254
10
-1.181684
20
5.857693
30
1.969429
11
-1.726465
21
4.407849
31
1.847211
12
-1.628186
22
4.435614
32
2.097424
13
-1.628186
23
4.435614
33
2.097424
0
3DFACE
8
1
62
168
10
-2.239172
20
3.000000
30
2.023689
11
-1.726465
21
4.407849
31
1.847211
12
-2.082947
22
4.441664
32
1.402242
13
-2.082947
23
4.441664
33
1.402242
0
3DFACE
8
1
62
168
10
-1.299250
20
5.835000
30
1.711344
11
-1.622943
21
5.845876
31
1.210827
12
-1.726465
22
4.407849
32
1.847211
13
-1.726465
23
4.407849
33
1.847211
0
3DFACE
8
1
62
168
10
-1.837417
20
5.835000
30
0.666667
11
-2.082947
21
4.441664
31
1.402242
12
-1.622943
22
5.845876
32
1.210827
13
-1.622943
23
5.845876
33
1.210827
0
3DFACE
8
1
62
168
10
-1.726465
20
4.407849
30
1.847211
11
-1.622943
21
5.845876
31
1.210827
12
-2.082947
22
4.441664
32
1.402242
13
-2.082947
23
4.441664
33
1.402242
0
3DFACE
8
1
62
168
10
-2.239172
20
3.000000
30
2.023689
11
-2.082947
21
4.441664
31
1.402242
12
-2.702919
22
3.000000
32
1.178511
13
-2.702919
23
3.000000
33
1.178511
0
3DFACE
8
1
62
168
10
-1.837417
20
5.835000
30
0.666667
11
-2.501215
21
4.419261
31
0.485037
12
-2.082947
22
4.441664
32
1.402242
13
-2.082947
23
4.441664
33
1.402242
0
3DFACE
8
1
62
168
10
-3.166667
20
3.000000
30
0.333333
11
-2.702919
21
3.000000
31
1.178511
12
-2.501215
22
4.419261
32
0.485037
13
-2.501215
23
4.419261
33
0.485037
0
3DFACE
8
1
62
168
10
-2.082947
20
4.441664
30
1.402242
11
-2.501215
21
4.419261
31
0.485037
12
-2.702919
22
3.000000
32
1.178511
13
-2.702919
23
3.000000
33
1.178511
0
3DFACE
8
1
62
168
10
-3.166667
20
3.000000
30
0.333333
11
-2.501215
21
4.419261
31
0.485037
12
-2.399944
22
4.477652
32
-0.562619
13
-2.399944
23
4.477652
33
-0.562619
0
3DFACE
8
1
62
168
10
-1.837417
20
5.835000
30
0.666667
11
-1.769745
21
5.884662
31
-0.414150
12
-2.501215
22
4.419261
32
0.485037
13
-2.501215
23
4.419261
33
0.485037
0
3DFACE
8
1
62
168
10
-1.299250
20
5.835000
30
-1.391344
11
-2.399944
21
4.477652
31
-0.562619
12
-1.769745
22
5.884662
32
-0.414150
13
-1.769745
23
5.884662
33
-0.414150
0
3DFACE
8
1
62
168
10
-2.501215
20
4.419261
30
0.485037
11
-1.769745
21
5.884662
31
-0.414150
12
-2.399944
22
4.477652
32
-0.562619
13
-2.399944
23
4.477652
33
-0.562619
0
3DFACE
8
1
62
168
10
-3.166667
20
3.000000
30
0.333333
11
-2.399944
21
4.477652
31
-0.562619
12
-2.941112
22
2.370348
32
-1.095769
13
-2.941112
23
2.370348
33
-1.095769
0
3DFACE
8
1
62
168
10
-1.299250
20
5.835000
30
-1.391344
11
-1.837662
21
3.764148
31
-1.928000
12
-2.399944
22
4.477652
32
-0.562619
13
-2.399944
23
4.477652
33
-0.562619
0
3DFACE
8
1
62
168
10
-2.239172
20
1.666667
30
-2.357023
11
-2.941112
21
2.370348
31
-1.095769
12
-1.837662
22
3.764148
32
-1.928000
13
-1.837662
23
3.764148
33
-1.928000
0
3DFACE
8
1
62
168
10
-2.399944
20
4.477652
30
-0.562619
11
-1.837662
21
3.764148
31
-1.928000
12
-2.941112
22
2.370348
32
-1.095769
13
-2.941112
23
2.370348
33
-1.095769
0
3DFACE
8
1
62
168
10
0.000000
20
1.666667
30
-3.333333
11
-1.233493
21
1.691542
31
-3.081655
12
-0.729344
22
3.814602
32
-2.609039
13
-0.729344
23
3.814602
33
-2.609039
0
3DFACE
8
1
62
168
10
-2.239172
20
1.666667
30
-2.357023
11
-1.837662
21
3.764148
31
-1.928000
12
-1.233493
22
1.691542
32
-3.081655
13
-1.233493
23
1.691542
33
-3.081655
0
3DFACE
8
1
62
168
10
-1.299250
20
5.835000
30
-1.391344
11
-0.729344
21
3.814602
31
-2.609039
12
-1.837662
22
3.764148
32
-1.928000
13
-1.837662
23
3.764148
33
-1.928000
0
3DFACE
8
1
62
168
10
-1.233493
20
1.691542
30
-3.081655
11
-1.837662
21
3.764148
31
-1.928000
12
-0.729344
22
3.814602
32
-2.609039
13
-0.729344
23
3.814602
33
-2.609039
0
3DFACE
8
1
62
168
10
-1.299250
20
5.835000
30
-1.391344
11
-0.713724
21
5.868077
31
-1.847540
12
-0.729344
22
3.814602
32
-2.609039
13
-0.729344
23
3.814602
33
-2.609039
0
3DFACE
8
1
62
168
10
0.000000
20
5.833333
30
-2.033931
11
0.000000
21
3.755375
31
-2.722483
12
-0.713724
22
5.868077
32
-1.847540
13
-0.713724
23
5.868077
33
-1.847540
0
3DFACE
8
1
62
168
10
0.000000
20
1.666667
30
-3.333333
11
-0.729344
21
3.814602
31
-2.609039
12
0.000000
22
3.755375
32
-2.722483
13
0.000000
23
3.755375
33
-2.722483
0
3DFACE
8
1
62
168
10
-0.713724
20
5.868077
30
-1.847540
11
0.000000
21
3.755375
31
-2.722483
12
-0.729344
22
3.814602
32
-2.609039
13
-0.729344
23
3.814602
33
-2.609039
0
3DFACE
8
1
62
168
10
1.299250
20
5.835000
30
-1.391344
11
1.837209
21
3.764122
31
-1.927844
12
0.729344
22
3.814602
32
-2.609039
13
0.729344
23
3.814602
33
-2.609039
0
3DFACE
8
1
62
168
10
2.239172
20
1.666667
30
-2.357023
11
1.233202
21
1.691648
31
-3.081416
12
1.837209
22
3.764122
32
-1.927844
13
1.837209
23
3.764122
33
-1.927844
0
3DFACE
8
1
62
168
10
0.000000
20
1.666667
30
-3.333333
11
0.729344
21
3.814602
31
-2.609039
12
1.233202
22
1.691648
32
-3.081416
13
1.233202
23
1.691648
33
-3.081416
0
3DFACE
8
1
62
168
10
1.837209
20
3.764122
30
-1.927844
11
1.233202
21
1.691648
31
-3.081416
12
0.729344
22
3.814602
32
-2.609039
13
0.729344
23
3.814602
33
-2.609039
0
3DFACE
8
1
62
168
10
0.000000
20
1.666667
30
-3.333333
11
0.000000
21
3.755375
31
-2.722483
12
0.729344
22
3.814602
32
-2.609039
13
0.729344
23
3.814602
33
-2.609039
0
3DFACE
8
1
62
168
10
0.000000
20
5.833333
30
-2.033931
11
0.713724
21
5.868077
31
-1.847540
12
0.000000
22
3.755375
32
-2.722483
13
0.000000
23
3.755375
33
-2.722483
0
3DFACE
8
1
62
168
10
1.299250
20
5.835000
30
-1.391344
11
0.729344
21
3.814602
31
-2.609039
12
0.713724
22
5.868077
32
-1.847540
13
0.713724
23
5.868077
33
-1.847540
0
3DFACE
8
1
62
168
10
0.000000
20
3.755375
30
-2.722483
11
0.713724
21
5.868077
31
-1.847540
12
0.729344
22
3.814602
32
-2.609039
13
0.729344
23
3.814602
33
-2.609039
0
3DFACE
8
1
62
168
10
3.166667
20
3.000000
30
0.333333
11
2.941878
21
2.370638
31
-1.095975
12
2.400006
22
4.477788
32
-0.562401
13
2.400006
23
4.477788
33
-0.562401
0
3DFACE
8
1
62
168
10
2.239172
20
1.666667
30
-2.357023
11
1.837209
21
3.764122
31
-1.927844
12
2.941878
22
2.370638
32
-1.095975
13
2.941878
23
2.370638
33
-1.095975
0
3DFACE
8
1
62
168
10
1.299250
20
5.835000
30
-1.391344
11
2.400006
21
4.477788
31
-0.562401
12
1.837209
22
3.764122
32
-1.927844
13
1.837209
23
3.764122
33
-1.927844
0
3DFACE
8
1
62
168
10
2.941878
20
2.370638
30
-1.095975
11
1.837209
21
3.764122
31
-1.927844
12
2.400006
22
4.477788
32
-0.562401
13
2.400006
23
4.477788
33
-0.562401
0
3DFACE
8
1
62
168
10
1.299250
20
5.835000
30
-1.391344
11
1.769571
21
5.884536
31
-0.414188
12
2.400006
22
4.477788
32
-0.562401
13
2.400006
23
4.477788
33
-0.562401
0
3DFACE
8
1
62
168
10
1.837417
20
5.835000
30
0.666667
11
2.500601
21
4.419107
31
0.485162
12
1.769571
22
5.884536
32
-0.414188
13
1.769571
23
5.884536
33
-0.414188
0
3DFACE
8
1
62
168
10
3.166667
20
3.000000
30
0.333333
11
2.400006
21
4.477788
31
-0.562401
12
2.500601
22
4.419107
32
0.485162
13
2.500601
23
4.419107
33
0.485162
0
3DFACE
8
1
62
168
10
1.769571
20
5.884536
30
-0.414188
11
2.500601
21
4.419107
31
0.485162
12
2.400006
22
4.477788
32
-0.562401
13
2.400006
23
4.477788
33
-0.562401
0
3DFACE
8
1
62
254
10
0.000000
20
1.666667
30
3.333333
11
-1.202178
21
2.371201
31
2.914363
12
-1.204611
22
1.106450
32
2.906881
13
-1.204611
23
1.106450
33
2.906881
0
3DFACE
8
1
62
254
10
-2.239172
20
3.000000
30
2.023689
11
-2.254863
21
1.793861
31
2.052178
12
-1.202178
22
2.371201
32
2.914363
13
-1.202178
23
2.371201
33
2.914363
0
3DFACE
8
1
62
254
10
-2.168383
20
0.574239
30
1.962319
11
-1.204611
21
1.106450
31
2.906881
12
-2.254863
22
1.793861
32
2.052178
13
-2.254863
23
1.793861
33
2.052178
0
3DFACE
8
1
62
254
10
-1.202178
20
2.371201
30
2.914363
11
-2.254863
21
1.793861
31
2.052178
12
-1.204611
22
1.106450
32
2.906881
13
-1.204611
23
1.106450
33
2.906881
0
3DFACE
8
1
62
254
10
-1.939179
20
-1.833333
30
2.041241
11
-1.035914
21
-2.205139
31
2.641232
12
-1.034959
22
-0.108362
32
2.925894
13
-1.034959
23
-0.108362
33
2.925894
0
3DFACE
8
1
62
254
10
0.000000
20
-2.500000
30
2.886751
11
0.000099
21
-0.436451
31
3.265570
12
-1.035914
22
-2.205139
32
2.641232
13
-1.035914
23
-2.205139
33
2.641232
0
3DFACE
8
1
62
254
10
0.000000
20
1.666667
30
3.333333
11
-1.034959
21
-0.108362
31
2.925894
12
0.000099
22
-0.436451
32
3.265570
13
0.000099
23
-0.436451
33
3.265570
0
3DFACE
8
1
62
254
10
-1.035914
20
-2.205139
30
2.641232
11
0.000099
21
-0.436451
31
3.265570
12
-1.034959
22
-0.108362
32
2.925894
13
-1.034959
23
-0.108362
33
2.925894
0
3DFACE
8
1
62
254
10
0.000000
20
1.666667
30
3.333333
11
-1.204611
21
1.106450
31
2.906881
12
-1.034959
22
-0.108362
32
2.925894
13
-1.034959
23
-0.108362
33
2.925894
0
3DFACE
8
1
62
254
10
-2.168383
20
0.574239
30
1.962319
11
-2.070878
21
-0.631377
31
2.020697
12
-1.204611
22
1.106450
32
2.906881
13
-1.204611
23
1.106450
33
2.906881
0
3DFACE
8
1
62
254
10
-1.939179
20
-1.833333
30
2.041241
11
-1.034959
21
-0.108362
31
2.925894
12
-2.070878
22
-0.631377
32
2.020697
13
-2.070878
23
-0.631377
33
2.020697
0
3DFACE
8
1
62
254
10
-1.204611
20
1.106450
30
2.906881
11
-2.070878
21
-0.631377
31
2.020697
12
-1.034959
22
-0.108362
32
2.925894
13
-1.034959
23
-0.108362
33
2.925894
0
3DFACE
8
1
62
168
10
-2.991317
20
0.582396
30
0.339979
11
-3.171978
21
1.797814
31
0.336187
12
-2.856488
22
1.120850
32
-1.092337
13
-2.856488
23
1.120850
33
-1.092337
0
3DFACE
8
1
62
168
10
-3.166667
20
3.000000
30
0.333333
11
-2.941112
21
2.370348
31
-1.095769
12
-3.171978
22
1.797814
32
0.336187
13
-3.171978
23
1.797814
33
0.336187
0
3DFACE
8
1
62
168
10
-2.239172
20
1.666667
30
-2.357023
11
-2.856488
21
1.120850
31
-1.092337
12
-2.941112
22
2.370348
32
-1.095769
13
-2.941112
23
2.370348
33
-1.095769
0
3DFACE
8
1
62
168
10
-3.171978
20
1.797814
30
0.336187
11
-2.941112
21
2.370348
31
-1.095769
12
-2.856488
22
1.120850
32
-1.092337
13
-2.856488
23
1.120850
33
-1.092337
0
3DFACE
8
1
62
168
10
-1.939179
20
-2.500000
30
-2.041241
11
-2.693812
21
-2.203140
31
-0.728881
12
-2.654082
22
-0.974342
32
-0.914741
13
-2.654082
23
-0.974342
33
-0.914741
0
3DFACE
8
1
62
168
10
-2.742414
20
-1.833333
30
0.666667
11
-2.871582
21
-0.625934
31
0.503125
12
-2.693812
22
-2.203140
32
-0.728881
13
-2.693812
23
-2.203140
33
-0.728881
0
3DFACE
8
1
62
168
10
-2.991317
20
0.582396
30
0.339979
11
-2.654082
21
-0.974342
31
-0.914741
12
-2.871582
22
-0.625934
32
0.503125
13
-2.871582
23
-0.625934
33
0.503125
0
3DFACE
8
1
62
168
10
-2.693812
20
-2.203140
30
-0.728881
11
-2.871582
21
-0.625934
31
0.503125
12
-2.654082
22
-0.974342
32
-0.914741
13
-2.654082
23
-0.974342
33
-0.914741
0
3DFACE
8
1
62
168
10
-2.991317
20
0.582396
30
0.339979
11
-2.856488
21
1.120850
31
-1.092337
12
-2.654082
22
-0.974342
32
-0.914741
13
-2.654082
23
-0.974342
33
-0.914741
0
3DFACE
8
1
62
168
10
-2.239172
20
1.666667
30
-2.357023
11
-2.145835
21
-0.416519
31
-2.244579
12
-2.856488
22
1.120850
32
-1.092337
13
-2.856488
23
1.120850
33
-1.092337
0
3DFACE
8
1
62
168
10
-1.939179
20
-2.500000
30
-2.041241
11
-2.654082
21
-0.974342
31
-0.914741
12
-2.145835
22
-0.416519
32
-2.244579
13
-2.145835
23
-0.416519
33
-2.244579
0
3DFACE
8
1
62
168
10
-2.856488
20
1.120850
30
-1.092337
11
-2.145835
21
-0.416519
31
-2.244579
12
-2.654082
22
-0.974342
32
-0.914741
13
-2.654082
23
-0.974342
33
-0.914741
0
3DFACE
8
1
62
168
10
-1.939179
20
-2.500000
30
-2.041241
11
-2.145835
21
-0.416519
31
-2.244579
12
-1.083236
22
-0.426944
32
-2.986560
13
-1.083236
23
-0.426944
33
-2.986560
0
3DFACE
8
1
62
168
10
-2.239172
20
1.666667
30
-2.357023
11
-1.233493
21
1.691542
31
-3.081655
12
-2.145835
22
-0.416519
32
-2.244579
13
-2.145835
23
-0.416519
33
-2.244579
0
3DFACE
8
1
62
168
10
0.000000
20
1.666667
30
-3.333333
11
-1.083236
21
-0.426944
31
-2.986560
12
-1.233493
22
1.691542
32
-3.081655
13
-1.233493
23
1.691542
33
-3.081655
0
3DFACE
8
1
62
168
10
-2.145835
20
-0.416519
30
-2.244579
11
-1.233493
21
1.691542
31
-3.081655
12
-1.083236
22
-0.426944
32
-2.986560
13
-1.083236
23
-0.426944
33
-2.986560
0
3DFACE
8
1
62
168
10
-1.939179
20
-2.500000
30
-2.041241
11
-1.083236
21
-0.426944
31
-2.986560
12
-1.070387
22
-2.489715
32
-2.668547
13
-1.070387
23
-2.489715
33
-2.668547
0
3DFACE
8
1
62
168
10
0.000000
20
1.666667
30
-3.333333
11
0.000000
21
-0.422137
31
-3.070990
12
-1.083236
22
-0.426944
32
-2.986560
13
-1.083236
23
-0.426944
33
-2.986560
0
3DFACE
8
1
62
168
10
0.000000
20
-2.500000
30
-2.886751
11
-1.070387
21
-2.489715
31
-2.668547
12
0.000000
22
-0.422137
32
-3.070990
13
0.000000
23
-0.422137
33
-3.070990
0
3DFACE
8
1
62
168
10
-1.083236
20
-0.426944
30
-2.986560
11
0.000000
21
-0.422137
31
-3.070990
12
-1.070387
22
-2.489715
32
-2.668547
13
-1.070387
23
-2.489715
33
-2.668547
0
3DFACE
8
1
62
254
10
1.119586
20
-5.550211
30
1.178511
11
1.650396
21
-3.791801
31
1.826768
12
0.591619
22
-4.121281
32
2.219646
13
0.591619
23
-4.121281
33
2.219646
0
3DFACE
8
1
62
254
10
1.939179
20
-1.833333
30
2.041241
11
1.036195
21
-2.205115
31
2.641602
12
1.650396
22
-3.791801
32
1.826768
13
1.650396
23
-3.791801
33
1.826768
0
3DFACE
8
1
62
254
10
0.000000
20
-2.500000
30
2.886751
11
0.591619
21
-4.121281
31
2.219646
12
1.036195
22
-2.205115
32
2.641602
13
1.036195
23
-2.205115
33
2.641602
0
3DFACE
8
1
62
254
10
1.650396
20
-3.791801
30
1.826768
11
1.036195
21
-2.205115
31
2.641602
12
0.591619
22
-4.121281
32
2.219646
13
0.591619
23
-4.121281
33
2.219646
0
3DFACE
8
1
62
254
10
1.119586
20
-5.550211
30
1.178511
11
0.591619
21
-4.121281
31
2.219646
12
0.618405
22
-5.500267
32
1.480168
13
0.618405
23
-5.500267
33
1.480168
0
3DFACE
8
1
62
254
10
0.000000
20
-2.500000
30
2.886751
11
0.000000
21
-4.174138
31
2.493325
12
0.591619
22
-4.121281
32
2.219646
13
0.591619
23
-4.121281
33
2.219646
0
3DFACE
8
1
62
254
10
0.000000
20
-5.550211
30
1.666667
11
0.618405
21
-5.500267
31
1.480168
12
0.000000
22
-4.174138
32
2.493325
13
0.000000
23
-4.174138
33
2.493325
0
3DFACE
8
1
62
254
10
0.591619
20
-4.121281
30
2.219646
11
0.000000
21
-4.174138
31
2.493325
12
0.618405
22
-5.500267
32
1.480168
13
0.618405
23
-5.500267
33
1.480168
0
3DFACE
8
1
62
254
10
-1.119586
20
-5.550211
30
1.178511
11
-0.618405
21
-5.500267
31
1.480168
12
-0.591619
22
-4.121281
32
2.219646
13
-0.591619
23
-4.121281
33
2.219646
0
3DFACE
8
1
62
254
10
0.000000
20
-5.550211
30
1.666667
11
0.000000
21
-4.174138
31
2.493325
12
-0.618405
22
-5.500267
32
1.480168
13
-0.618405
23
-5.500267
33
1.480168
0
3DFACE
8
1
62
254
10
0.000000
20
-2.500000
30
2.886751
11
-0.591619
21
-4.121281
31
2.219646
12
0.000000
22
-4.174138
32
2.493325
13
0.000000
23
-4.174138
33
2.493325
0
3DFACE
8
1
62
254
10
-0.618405
20
-5.500267
30
1.480168
11
0.000000
21
-4.174138
31
2.493325
12
-0.591619
22
-4.121281
32
2.219646
13
-0.591619
23
-4.121281
33
2.219646
0
3DFACE
8
1
62
254
10
0.000000
20
-2.500000
30
2.886751
11
-1.035914
21
-2.205139
31
2.641232
12
-0.591619
22
-4.121281
32
2.219646
13
-0.591619
23
-4.121281
33
2.219646
0
3DFACE
8
1
62
254
10
-1.939179
20
-1.833333
30
2.041241
11
-1.649788
21
-3.791710
31
1.826231
12
-1.035914
22
-2.205139
32
2.641232
13
-1.035914
23
-2.205139
33
2.641232
0
3DFACE
8
1
62
254
10
-1.119586
20
-5.550211
30
1.178511
11
-0.591619
21
-4.121281
31
2.219646
12
-1.649788
22
-3.791710
32
1.826231
13
-1.649788
23
-3.791710
33
1.826231
0
3DFACE
8
1
62
254
10
-1.035914
20
-2.205139
30
2.641232
11
-1.649788
21
-3.791710
31
1.826231
12
-0.591619
22
-4.121281
32
2.219646
13
-0.591619
23
-4.121281
33
2.219646
0
3DFACE
8
1
62
31
10
-2.510233
20
-7.802428
30
4.545553
11
-3.753794
21
-7.994578
31
4.566191
12
-1.997508
22
-7.924992
32
3.339189
13
-1.997508
23
-7.924992
33
3.339189
0
3DFACE
8
1
62
31
10
-4.535104
20
-7.991339
30
3.756217
11
-3.286695
21
-7.899106
31
2.831579
12
-3.753794
22
-7.994578
32
4.566191
13
-3.753794
23
-7.994578
33
4.566191
0
3DFACE
8
1
62
31
10
-2.034466
20
-7.792618
30
1.913953
11
-1.997508
21
-7.924992
31
3.339189
12
-3.286695
22
-7.899106
32
2.831579
13
-3.286695
23
-7.899106
33
2.831579
0
3DFACE
8
1
62
31
10
-3.753794
20
-7.994578
30
4.566191
11
-3.286695
21
-7.899106
31
2.831579
12
-1.997508
22
-7.924992
32
3.339189
13
-1.997508
23
-7.924992
33
3.339189
0
3DFACE
8
1
62
168
10
-1.583333
20
-4.883545
30
-2.000000
11
-2.514060
21
-3.454761
31
-0.631239
12
-1.835776
22
-3.710322
32
-2.054069
13
-1.835776
23
-3.710322
33
-2.054069
0
3DFACE
8
1
62
168
10
-2.742414
20
-1.833333
30
0.666667
11
-2.693812
21
-2.203140
31
-0.728881
12
-2.514060
22
-3.454761
32
-0.631239
13
-2.514060
23
-3.454761
33
-0.631239
0
3DFACE
8
1
62
168
10
-1.939179
20
-2.500000
30
-2.041241
11
-1.835776
21
-3.710322
31
-2.054069
12
-2.693812
22
-2.203140
32
-0.728881
13
-2.693812
23
-2.203140
33
-0.728881
0
3DFACE
8
1
62
168
10
-2.514060
20
-3.454761
30
-0.631239
11
-2.693812
21
-2.203140
31
-0.728881
12
-1.835776
22
-3.710322
32
-2.054069
13
-1.835776
23
-3.710322
33
-2.054069
0
3DFACE
8
1
62
168
10
-1.583333
20
-4.883545
30
-2.000000
11
-1.835776
21
-3.710322
31
-2.054069
12
-1.414934
22
-4.881032
32
-2.633407
13
-1.414934
23
-4.881032
33
-2.633407
0
3DFACE
8
1
62
168
10
-1.939179
20
-2.500000
30
-2.041241
11
-1.526766
21
-3.688759
31
-2.614552
12
-1.835776
22
-3.710322
32
-2.054069
13
-1.835776
23
-3.710322
33
-2.054069
0
3DFACE
8
1
62
168
10
-1.119586
20
-4.883545
30
-3.178511
11
-1.414934
21
-4.881032
31
-2.633407
12
-1.526766
22
-3.688759
32
-2.614552
13
-1.526766
23
-3.688759
33
-2.614552
0
3DFACE
8
1
62
168
10
-1.835776
20
-3.710322
30
-2.054069
11
-1.526766
21
-3.688759
31
-2.614552
12
-1.414934
22
-4.881032
32
-2.633407
13
-1.414934
23
-4.881032
33
-2.633407
0
3DFACE
8
1
62
168
10
-1.119586
20
-4.883545
30
-3.178511
11
-1.526766
21
-3.688759
31
-2.614552
12
-0.626191
22
-3.667699
32
-3.132145
13
-0.626191
23
-3.667699
33
-3.132145
0
3DFACE
8
1
62
168
10
-1.939179
20
-2.500000
30
-2.041241
11
-1.070387
21
-2.489715
31
-2.668547
12
-1.526766
22
-3.688759
32
-2.614552
13
-1.526766
23
-3.688759
33
-2.614552
0
3DFACE
8
1
62
168
10
0.000000
20
-2.500000
30
-2.886751
11
-0.626191
21
-3.667699
31
-3.132145
12
-1.070387
22
-2.489715
32
-2.668547
13
-1.070387
23
-2.489715
33
-2.668547
0
3DFACE
8
1
62
168
10
-1.526766
20
-3.688759
30
-2.614552
11
-1.070387
21
-2.489715
31
-2.668547
12
-0.626191
22
-3.667699
32
-3.132145
13
-0.626191
23
-3.667699
33
-3.132145
0
3DFACE
8
1
62
168
10
-1.119586
20
-4.883545
30
-3.178511
11
-0.626191
21
-3.667699
31
-3.132145
12
-0.596194
22
-4.864511
32
-3.517968
13
-0.596194
23
-4.864511
33
-3.517968
0
3DFACE
8
1
62
168
10
0.000000
20
-2.500000
30
-2.886751
11
0.000000
21
-3.698341
31
-3.247876
12
-0.626191
22
-3.667699
32
-3.132145
13
-0.626191
23
-3.667699
33
-3.132145
0
3DFACE
8
1
62
168
10
0.000000
20
-4.883545
30
-3.666667
11
-0.596194
21
-4.864511
31
-3.517968
12
0.000000
22
-3.698341
32
-3.247876
13
0.000000
23
-3.698341
33
-3.247876
0
3DFACE
8
1
62
168
10
-0.626191
20
-3.667699
30
-3.132145
11
0.000000
21
-3.698341
31
-3.247876
12
-0.596194
22
-4.864511
32
-3.517968
13
-0.596194
23
-4.864511
33
-3.517968
0
3DFACE
8
1
62
168
10
1.119586
20
-4.883545
30
-3.178511
11
0.596194
21
-4.864511
31
-3.517968
12
0.626191
22
-3.667699
32
-3.132145
13
0.626191
23
-3.667699
33
-3.132145
0
3DFACE
8
1
62
168
10
0.000000
20
-4.883545
30
-3.666667
11
0.000000
21
-3.698341
31
-3.247876
12
0.596194
22
-4.864511
32
-3.517968
13
0.596194
23
-4.864511
33
-3.517968
0
3DFACE
8
1
62
168
10
0.000000
20
-2.500000
30
-2.886751
11
0.626191
21
-3.667699
31
-3.132145
12
0.000000
22
-3.698341
32
-3.247876
13
0.000000
23
-3.698341
33
-3.247876
0
3DFACE
8
1
62
168
10
0.596194
20
-4.864511
30
-3.517968
11
0.000000
21
-3.698341
31
-3.247876
12
0.626191
22
-3.667699
32
-3.132145
13
0.626191
23
-3.667699
33
-3.132145
0
3DFACE
8
1
62
168
10
0.000000
20
-2.500000
30
-2.886751
11
1.070284
21
-2.489802
31
-2.668463
12
0.626191
22
-3.667699
32
-3.132145
13
0.626191
23
-3.667699
33
-3.132145
0
3DFACE
8
1
62
168
10
1.939179
20
-2.500000
30
-2.041241
11
1.526543
21
-3.688740
31
-2.614377
12
1.070284
22
-2.489802
32
-2.668463
13
1.070284
23
-2.489802
33
-2.668463
0
3DFACE
8
1
62
168
10
1.119586
20
-4.883545
30
-3.178511
11
0.626191
21
-3.667699
31
-3.132145
12
1.526543
22
-3.688740
32
-2.614377
13
1.526543
23
-3.688740
33
-2.614377
0
3DFACE
8
1
62
168
10
1.070284
20
-2.489802
30
-2.668463
11
1.526543
21
-3.688740
31
-2.614377
12
0.626191
22
-3.667699
32
-3.132145
13
0.626191
23
-3.667699
33
-3.132145
0
3DFACE
8
1
62
168
10
0.000000
20
-6.333333
30
-4.000000
11
0.884268
21
-5.702005
31
-3.028653
12
1.155153
22
-6.361574
32
-1.211486
13
1.155153
23
-6.361574
33
-1.211486
0
3DFACE
8
1
62
168
10
1.583333
20
-4.883545
30
-2.000000
11
1.636752
21
-5.633355
31
-0.321303
12
0.884268
22
-5.702005
32
-3.028653
13
0.884268
23
-5.702005
33
-3.028653
0
3DFACE
8
1
62
168
10
1.119586
20
-5.550211
30
1.178511
11
1.155153
21
-6.361574
31
-1.211486
12
1.636752
22
-5.633355
32
-0.321303
13
1.636752
23
-5.633355
33
-0.321303
0
3DFACE
8
1
62
168
10
0.884268
20
-5.702005
30
-3.028653
11
1.636752
21
-5.633355
31
-0.321303
12
1.155153
22
-6.361574
32
-1.211486
13
1.155153
23
-6.361574
33
-1.211486
0
3DFACE
8
1
62
254
10
0.000000
20
-6.333333
30
-4.000000
11
1.155153
21
-6.361574
31
-1.211486
12
0.000000
22
-6.447725
32
-1.028398
13
0.000000
23
-6.447725
33
-1.028398
0
3DFACE
8
1
62
254
10
1.119586
20
-5.550211
30
1.178511
11
0.618405
21
-5.500267
31
1.480168
12
1.155153
22
-6.361574
32
-1.211486
13
1.155153
23
-6.361574
33
-1.211486
0
3DFACE
8
1
62
254
10
0.000000
20
-5.550211
30
1.666667
11
0.000000
21
-6.447725
31
-1.028398
12
0.618405
22
-5.500267
32
1.480168
13
0.618405
23
-5.500267
33
1.480168
0
3DFACE
8
1
62
254
10
1.155153
20
-6.361574
30
-1.211486
11
0.618405
21
-5.500267
31
1.480168
12
0.000000
22
-6.447725
32
-1.028398
13
0.000000
23
-6.447725
33
-1.028398
0
3DFACE
8
1
62
254
10
0.000000
20
-6.333333
30
-4.000000
11
0.000000
21
-6.447725
31
-1.028398
12
-1.155153
22
-6.361574
32
-1.211486
13
-1.155153
23
-6.361574
33
-1.211486
0
3DFACE
8
1
62
254
10
0.000000
20
-5.550211
30
1.666667
11
-0.618405
21
-5.500267
31
1.480168
12
0.000000
22
-6.447725
32
-1.028398
13
0.000000
23
-6.447725
33
-1.028398
0
3DFACE
8
1
62
254
10
-1.119586
20
-5.550211
30
1.178511
11
-1.155153
21
-6.361574
31
-1.211486
12
-0.618405
22
-5.500267
32
1.480168
13
-0.618405
23
-5.500267
33
1.480168
0
3DFACE
8
1
62
254
10
0.000000
20
-6.447725
30
-1.028398
11
-0.618405
21
-5.500267
31
1.480168
12
-1.155153
22
-6.361574
32
-1.211486
13
-1.155153
23
-6.361574
33
-1.211486
0
3DFACE
8
1
62
168
10
0.000000
20
-6.333333
30
-4.000000
11
-1.155153
21
-6.361574
31
-1.211486
12
-0.884268
22
-5.702005
32
-3.028653
13
-0.884268
23
-5.702005
33
-3.028653
0
3DFACE
8
1
62
168
10
-1.119586
20
-5.550211
30
1.178511
11
-1.636752
21
-5.633355
31
-0.321303
12
-1.155153
22
-6.361574
32
-1.211486
13
-1.155153
23
-6.361574
33
-1.211486
0
3DFACE
8
1
62
168
10
-1.583333
20
-4.883545
30
-2.000000
11
-0.884268
21
-5.702005
31
-3.028653
12
-1.636752
22
-5.633355
32
-0.321303
13
-1.636752
23
-5.633355
33
-0.321303
0
3DFACE
8
1
62
168
10
-1.155153
20
-6.361574
30
-1.211486
11
-1.636752
21
-5.633355
31
-0.321303
12
-0.884268
22
-5.702005
32
-3.028653
13
-0.884268
23
-5.702005
33
-3.028653
0
3DFACE
8
1
62
168
10
0.000000
20
-6.333333
30
-4.000000
11
-0.884268
21
-5.702005
31
-3.028653
12
-0.637253
22
-5.693520
32
-3.597838
13
-0.637253
23
-5.693520
33
-3.597838
0
3DFACE
8
1
62
168
10
-1.583333
20
-4.883545
30
-2.000000
11
-1.414934
21
-4.881032
31
-2.633407
12
-0.884268
22
-5.702005
32
-3.028653
13
-0.884268
23
-5.702005
33
-3.028653
0
3DFACE
8
1
62
168
10
-1.119586
20
-4.883545
30
-3.178511
11
-0.637253
21
-5.693520
31
-3.597838
12
-1.414934
22
-4.881032
32
-2.633407
13
-1.414934
23
-4.881032
33
-2.633407
0
3DFACE
8
1
62
168
10
-0.884268
20
-5.702005
30
-3.028653
11
-1.414934
21
-4.881032
31
-2.633407
12
-0.637253
22
-5.693520
32
-3.597838
13
-0.637253
23
-5.693520
33
-3.597838
0
3DFACE
8
1
62
168
10
0.000000
20
-6.333333
30
-4.000000
11
-0.637253
21
-5.693520
31
-3.597838
12
-0.000000
22
-5.611887
32
-3.944015
13
-0.000000
23
-5.611887
33
-3.944015
0
3DFACE
8
1
62
168
10
-1.119586
20
-4.883545
30
-3.178511
11
-0.596194
21
-4.864511
31
-3.517968
12
-0.637253
22
-5.693520
32
-3.597838
13
-0.637253
23
-5.693520
33
-3.597838
0
3DFACE
8
1
62
168
10
0.000000
20
-4.883545
30
-3.666667
11
-0.000000
21
-5.611887
31
-3.944015
12
-0.596194
22
-4.864511
32
-3.517968
13
-0.596194
23
-4.864511
33
-3.517968
0
3DFACE
8
1
62
168
10
-0.637253
20
-5.693520
30
-3.597838
11
-0.596194
21
-4.864511
31
-3.517968
12
-0.000000
22
-5.611887
32
-3.944015
13
-0.000000
23
-5.611887
33
-3.944015
0
3DFACE
8
1
62
168
10
0.000000
20
-6.333333
30
-4.000000
11
-0.000000
21
-5.611887
31
-3.944015
12
0.637253
22
-5.693520
32
-3.597838
13
0.637253
23
-5.693520
33
-3.597838
0
3DFACE
8
1
62
168
10
0.000000
20
-4.883545
30
-3.666667
11
0.596194
21
-4.864511
31
-3.517968
12
-0.000000
22
-5.611887
32
-3.944015
13
-0.000000
23
-5.611887
33
-3.944015
0
3DFACE
8
1
62
168
10
1.119586
20
-4.883545
30
-3.178511
11
0.637253
21
-5.693520
31
-3.597838
12
0.596194
22
-4.864511
32
-3.517968
13
0.596194
23
-4.864511
33
-3.517968
0
3DFACE
8
1
62
168
10
-0.000000
20
-5.611887
30
-3.944015
11
0.596194
21
-4.864511
31
-3.517968
12
0.637253
22
-5.693520
32
-3.597838
13
0.637253
23
-5.693520
33
-3.597838
0
3DFACE
8
1
62
168
10
0.000000
20
-6.333333
30
-4.000000
11
0.637253
21
-5.693520
31
-3.597838
12
0.884268
22
-5.702005
32
-3.028653
13
0.884268
23
-5.702005
33
-3.028653
0
3DFACE
8
1
62
168
10
1.119586
20
-4.883545
30
-3.178511
11
1.414934
21
-4.881032
31
-2.633407
12
0.637253
22
-5.693520
32
-3.597838
13
0.637253
23
-5.693520
33
-3.597838
0
3DFACE
8
1
62
168
10
1.583333
20
-4.883545
30
-2.000000
11
0.884268
21
-5.702005
31
-3.028653
12
1.414934
22
-4.881032
32
-2.633407
13
1.414934
23
-4.881032
33
-2.633407
0
3DFACE
8
1
62
168
10
0.637253
20
-5.693520
30
-3.597838
11
1.414934
21
-4.881032
31
-2.633407
12
0.884268
22
-5.702005
32
-3.028653
13
0.884268
23
-5.702005
33
-3.028653
0
ENDSEC
0
EOF
